<svg id="Chart" xmlns="http://www.w3.org/2000/svg" width="167.162" height="167.162" viewBox="0 0 167.162 167.162">
  <g id="Oval" transform="translate(9 9)" fill="none" stroke="#eaeaea" stroke-miterlimit="10" stroke-width="10">
    <circle cx="75" cy="75" r="75" stroke="none"/>
    <circle cx="75" cy="75" r="70" fill="none"/>
  </g>
  <g id="Oval-2" data-name="Oval" transform="translate(167.162 148.882) rotate(173)" fill="none" stroke-linecap="round" stroke-miterlimit="10" stroke-dasharray="256 500">
    <path d="M55.593,147.426a74.981,74.981,0,1,1,91.833-53.02A74.981,74.981,0,0,1,55.593,147.426Z" stroke="none"/>
    <path d="M 75.04704284667969 150 C 68.62200164794922 150 62.09486389160156 149.1685028076172 55.59341049194336 147.4264526367188 C 55.59341049194336 147.4264526367188 55.59341049194336 147.4264526367188 55.59341049194336 147.4264526367188 C 55.57387924194336 147.4212188720703 55.55520629882813 147.4162139892578 55.53568267822266 147.4109649658203 C 55.53568267822266 147.4109649658203 55.53394317626953 147.4104919433594 55.53394317626953 147.4104919433594 C 55.51441955566406 147.4052429199219 55.49749755859375 147.4006958007813 55.47798156738281 147.3954315185547 C 55.47798156738281 147.3954315185547 55.47453689575195 147.3945007324219 55.47453689575195 147.3945007324219 C 55.45502090454102 147.3892364501953 55.43875122070313 147.3848419189453 55.41924285888672 147.3795623779297 C 55.41924285888672 147.3795623779297 55.41623306274414 147.3787536621094 55.41623306274414 147.3787536621094 C 55.39672470092773 147.3734741210938 55.38022232055664 147.3690032958984 55.36072158813477 147.3637084960938 C 55.36072158813477 147.3637084960938 55.35770034790039 147.3628997802734 55.35770034790039 147.3628997802734 C 55.33819961547852 147.3576049804688 55.32174682617188 147.3531341552734 55.30225372314453 147.3478240966797 C 55.30225372314453 147.3478240966797 55.29921340942383 147.3470001220703 55.29921340942383 147.3470001220703 C 55.27972030639648 147.3416900634766 55.26327133178711 147.3372039794922 55.2437858581543 147.3318786621094 C 55.2437858581543 147.3318786621094 55.24076461791992 147.3310546875 55.24076461791992 147.3310546875 C 55.22249984741211 147.3260803222656 55.20394897460938 147.3209991455078 55.18569183349609 147.3159942626953 C 55.18569183349609 147.3159942626953 55.18194580078125 147.3149719238281 55.18194580078125 147.3149719238281 C 55.1649055480957 147.310302734375 55.14431762695313 147.3046569824219 55.12728118896484 147.2999725341797 C 55.12728118896484 147.2999725341797 55.12348175048828 147.2989349365234 55.12348175048828 147.2989349365234 C 55.10644912719727 147.2942504882813 55.08654403686523 147.2887725830078 55.06951522827148 147.2840881347656 C 55.06951522827148 147.2840881347656 55.06455230712891 147.28271484375 55.06455230712891 147.28271484375 C 55.04752349853516 147.2780303955078 55.02811431884766 147.2726593017578 55.01109313964844 147.2679595947266 C 55.01109313964844 147.2679595947266 55.00611114501953 147.2665863037109 55.00611114501953 147.2665863037109 C 54.98908996582031 147.2618713378906 54.96982574462891 147.2565460205078 54.95281219482422 147.2518310546875 C 54.95281219482422 147.2518310546875 54.94783020019531 147.2504425048828 54.94783020019531 147.2504425048828 C 54.93081665039063 147.2457275390625 54.91120910644531 147.2402801513672 54.89419937133789 147.2355499267578 C 54.89419937133789 147.2355499267578 54.88972473144531 147.2342987060547 54.88972473144531 147.2342987060547 C 54.87271499633789 147.2295684814453 54.85366821289063 147.2242736816406 54.83666610717773 147.2195281982422 C 54.83666610717773 147.2195281982422 54.83046340942383 147.2177886962891 54.83046340942383 147.2177886962891 C 54.81346130371094 147.2130432128906 54.79634094238281 147.2082672119141 54.77934646606445 147.2035064697266 C 54.77449035644531 147.2021484375 54.77629470825195 147.2026519775391 54.77143859863281 147.2012939453125 C 54.75444412231445 147.196533203125 54.73805618286133 147.1919403076172 54.7210693359375 147.1871795654297 C 54.71621322631836 147.1858215332031 54.7180290222168 147.1863250732422 54.71317672729492 147.1849670410156 C 54.69618988037109 147.1801910400391 54.67982482910156 147.1755981445313 54.66284561157227 147.1708068847656 C 54.65799331665039 147.1694488525391 54.65977478027344 147.1699523925781 54.65492630004883 147.1685791015625 C 54.63794326782227 147.1638031005859 54.62215423583984 147.1593475341797 54.60518264770508 147.1545562744141 C 54.6003303527832 147.1531829833984 54.60100173950195 147.1533813476563 54.59615325927734 147.1520080566406 C 54.57917785644531 147.147216796875 54.56400299072266 147.1429138183594 54.54703521728516 147.1381072998047 C 54.54218673706055 147.1367340087891 54.54282379150391 147.1369171142578 54.5379753112793 147.1355438232422 C 54.5210075378418 147.1307373046875 54.50582885742188 147.1264343261719 54.48886489868164 147.1216125488281 C 54.4840202331543 147.1202392578125 54.48460006713867 147.1204071044922 54.47975540161133 147.1190185546875 C 54.46279525756836 147.1141967773438 54.44845199584961 147.1101226806641 54.43149566650391 147.1052856445313 C 54.42665100097656 147.1039123535156 54.42560195922852 147.1036071777344 54.42076110839844 147.1022338867188 C 54.4050178527832 147.0977478027344 54.38994979858398 147.0934448242188 54.37421417236328 147.0889434814453 C 54.3693733215332 147.0875701904297 54.36672210693359 147.0868072509766 54.36188125610352 147.0854187011719 C 54.34735870361328 147.0812683105469 54.33072280883789 147.0765075683594 54.31620407104492 147.0723419189453 C 54.31136322021484 147.0709533691406 54.30857467651367 147.0701599121094 54.30373382568359 147.0687713623047 C 54.28921508789063 147.0646057128906 54.27251052856445 147.059814453125 54.25799560546875 147.0556335449219 C 54.25315856933594 147.0542449951172 54.25076293945313 147.0535583496094 54.24592590332031 147.0521697998047 C 54.23141098022461 147.0479888916016 54.21420288085938 147.0430297851563 54.1996955871582 147.0388488769531 C 54.19485855102539 147.0374603271484 54.19289016723633 147.0368957519531 54.18805313110352 147.0354919433594 C 54.17354583740234 147.0313110351563 54.15687942504883 147.0264892578125 54.14237594604492 147.0223083496094 C 54.13754272460938 147.0209045410156 54.13414764404297 147.0199279785156 54.12931060791016 147.0185241699219 C 54.11481094360352 147.0143280029297 54.09892272949219 147.0097198486328 54.08442306518555 147.0055236816406 C 54.07958984375 147.0041198730469 54.07608795166016 147.0030975341797 54.07125854492188 147.0016937255859 C 54.0567626953125 146.9974975585938 54.04100036621094 146.9929046630859 54.02650833129883 146.9886932373047 C 54.02167892456055 146.9872894287109 54.0180549621582 146.9862365722656 54.01322555541992 146.9848327636719 C 53.99873733520508 146.9806060791016 53.98357009887695 146.9761962890625 53.96908187866211 146.9719696044922 C 53.96425628662109 146.9705505371094 53.95960998535156 146.9692077636719 53.95478057861328 146.9677886962891 C 53.9402961730957 146.9635620117188 53.92547988891602 146.959228515625 53.9109992980957 146.9550018310547 C 53.90617370605469 146.9535827636719 53.90214157104492 146.9524078369141 53.89731597900391 146.9509887695313 C 53.88283920288086 146.9467468261719 53.8672981262207 146.9421997070313 53.85282516479492 146.9379425048828 C 53.84799957275391 146.9365386962891 53.84391784667969 146.9353332519531 53.83909606933594 146.9339141845703 C 53.82462310791016 146.9296722412109 53.80953979492188 146.9252319335938 53.79507064819336 146.9209747314453 C 53.79024887084961 146.9195556640625 53.78617477416992 146.9183502197266 53.78135299682617 146.9169311523438 C 53.76688766479492 146.9126739501953 53.75239562988281 146.9084014892578 53.73793411254883 146.9041290283203 C 53.73311233520508 146.9027099609375 53.72798538208008 146.9011993408203 53.72316741943359 146.8997802734375 C 53.70870590209961 146.8955078125 53.69404602050781 146.8911590576172 53.67959213256836 146.8868865966797 C 53.67477416992188 146.8854675292969 53.67028045654297 146.8841247558594 53.66546249389648 146.8827056884766 C 53.65100860595703 146.87841796875 53.63690948486328 146.8742370605469 53.62245941162109 146.8699493408203 C 53.61764144897461 146.8685150146484 53.61157608032227 146.8667144775391 53.60676193237305 146.8652801513672 C 53.59231185913086 146.8609924316406 53.57939529418945 146.8571472167969 53.5649528503418 146.8528442382813 C 53.56013870239258 146.8514099121094 53.55392074584961 146.8495635986328 53.54910659790039 146.8481292724609 C 53.53466415405273 146.8438262939453 53.52149963378906 146.8399047851563 53.50706100463867 146.8355865478516 C 53.50225067138672 146.8341522216797 53.49589157104492 146.8322448730469 53.49108123779297 146.830810546875 C 53.47664260864258 146.8265075683594 53.46383666992188 146.8226623535156 53.44940567016602 146.8183441162109 C 53.44459533691406 146.8169097900391 53.43854522705078 146.8150939941406 53.43373489379883 146.8136444091797 C 53.41930389404297 146.809326171875 53.40652084350586 146.8054962158203 53.39209365844727 146.8011627197266 C 53.38728713989258 146.7997131347656 53.37965393066406 146.7974243164063 53.37484741210938 146.7959747314453 C 53.36162567138672 146.7920074462891 53.34878540039063 146.7881317138672 53.33556747436523 146.7841644287109 C 53.33076095581055 146.78271484375 53.32170486450195 146.7799835205078 53.31689834594727 146.7785339355469 C 53.30488204956055 146.77490234375 53.28958511352539 146.7702941894531 53.27757263183594 146.7666625976563 C 53.27276611328125 146.7652130126953 53.26364135742188 146.762451171875 53.25883865356445 146.7610015869141 C 53.246826171875 146.7573699951172 53.23233413696289 146.7529907226563 53.2203254699707 146.7493438720703 C 53.21552276611328 146.7478942871094 53.20611572265625 146.7450408935547 53.20131301879883 146.7435913085938 C 53.18930816650391 146.7399444580078 53.17515182495117 146.7356567382813 53.16315078735352 146.7320098876953 C 53.15835189819336 146.7305450439453 53.14775085449219 146.7273254394531 53.14294815063477 146.7258605957031 C 53.13095092773438 146.7222137451172 53.11774063110352 146.7182006835938 53.10574340820313 146.7145385742188 C 53.10094451904297 146.7130889892578 53.09050750732422 146.7098999023438 53.08570861816406 146.7084350585938 C 53.07371139526367 146.7047729492188 53.05965042114258 146.7004852294922 53.04765701293945 146.6968231201172 C 53.04286193847656 146.6953582763672 53.03283309936523 146.6922912597656 53.02803421020508 146.6908264160156 C 53.01604461669922 146.6871643066406 53.00290679931641 146.6831359863281 52.99091720581055 146.6794586181641 C 52.98612213134766 146.6779937744141 52.974609375 146.6744689941406 52.96981811523438 146.6730041503906 C 52.95783233642578 146.6693267822266 52.94602203369141 146.6656951904297 52.93404006958008 146.6620178222656 C 52.92445373535156 146.6590728759766 52.92089462280273 146.6579742431641 52.91130828857422 146.655029296875 C 52.89933013916016 146.6513519287109 52.88899230957031 146.6481628417969 52.87701416015625 146.6444702148438 C 52.867431640625 146.6415252685547 52.8632926940918 146.6402435302734 52.85371017456055 146.6372985839844 C 52.84173583984375 146.6335906982422 52.83145523071289 146.6304321289063 52.81948089599609 146.6267242431641 C 52.80990219116211 146.6237640380859 52.80604553222656 146.6225738525391 52.79647064208984 146.6196136474609 C 52.78450012207031 146.6159057617188 52.7744255065918 146.61279296875 52.76245880126953 146.6090850830078 C 52.75288391113281 146.6061248779297 52.7479362487793 146.6045837402344 52.73836135864258 146.6016082763672 C 52.72639846801758 146.597900390625 52.71714782714844 146.5950317382813 52.7051887512207 146.5913238525391 C 52.69561767578125 146.5883483886719 52.69092178344727 146.5868835449219 52.68135452270508 146.5839080810547 C 52.66939544677734 146.5801849365234 52.65917205810547 146.5770111083984 52.64721298217773 146.5732879638672 C 52.63764572143555 146.5702972412109 52.63351058959961 146.5690155029297 52.62394714355469 146.5660247802734 C 52.61199188232422 146.5623016357422 52.60227966308594 146.5592651367188 52.59032440185547 146.5555419921875 C 52.58076477050781 146.5525512695313 52.5755729675293 146.5509338378906 52.56601333618164 146.5479431152344 C 52.5540657043457 146.5442047119141 52.54498672485352 146.5413513183594 52.53303909301758 146.5376129150391 C 52.52347946166992 146.5346221923828 52.51861953735352 146.5330963134766 52.50906372070313 146.5301055908203 C 52.49711608886719 146.5263519287109 52.48739624023438 146.5233001708984 52.47545623779297 146.5195465087891 C 52.46590042114258 146.5165557861328 52.46147537231445 146.5151519775391 52.45192337036133 146.5121612548828 C 52.43998336791992 146.5083923339844 52.42989349365234 146.5052185058594 52.4179573059082 146.50146484375 C 52.40840911865234 146.4984588623047 52.40366744995117 146.4969635009766 52.39411926269531 146.4939575195313 C 52.38218307495117 146.4901885986328 52.37310409545898 146.4873199462891 52.36117172241211 146.4835510253906 C 52.35162353515625 146.4805297851563 52.34640502929688 146.4788818359375 52.33686065673828 146.4758605957031 C 52.32492828369141 146.4720916748047 52.31581497192383 146.4692077636719 52.30388641357422 146.4654388427734 C 52.29434585571289 146.4624176025391 52.28945922851563 146.4608612060547 52.2799186706543 146.4578399658203 C 52.26799392700195 146.4540557861328 52.25872802734375 146.4511108398438 52.24680709838867 146.4473266601563 C 52.23726654052734 146.4443054199219 52.23128890991211 146.4423980712891 52.22175598144531 146.4393615722656 C 52.21221923828125 146.4363403320313 52.19958877563477 146.4323120117188 52.1900520324707 146.4292755126953 C 52.18051910400391 146.4262390136719 52.17446136474609 146.42431640625 52.1649284362793 146.4212646484375 C 52.15301132202148 146.41748046875 52.14439392089844 146.4147186279297 52.13248062133789 146.4109191894531 C 52.12295150756836 146.4078674316406 52.11722946166992 146.4060516357422 52.10770034790039 146.4029998779297 C 52.09579086303711 146.3991851806641 52.08711624145508 146.3964233398438 52.07521057128906 146.3926086425781 C 52.06568145751953 146.3895568847656 52.05981063842773 146.3876647949219 52.05028915405273 146.3846130371094 C 52.04076385498047 146.3815612792969 52.02845001220703 146.3776092529297 52.01892852783203 146.3745574951172 C 52.00940704345703 146.3715057373047 52.00222778320313 146.3691864013672 51.99270629882813 146.3661346435547 C 51.98318862915039 146.3630676269531 51.97161102294922 146.3593444824219 51.96209335327148 146.3562774658203 C 51.95257186889648 146.3532257080078 51.944580078125 146.3506469726563 51.93506622314453 146.3475799560547 C 51.9255485534668 146.3445129394531 51.91474533081055 146.3410186767578 51.90523147583008 146.3379516601563 C 51.89571762084961 146.3348846435547 51.8875732421875 146.3322448730469 51.8780632019043 146.3291778564453 C 51.86854934692383 146.3260955810547 51.85758590698242 146.3225555419922 51.84807586669922 146.3194732666016 C 51.83856582641602 146.3163909912109 51.83052825927734 146.3137969970703 51.82102203369141 146.3107147216797 C 51.8115119934082 146.3076324462891 51.80051422119141 146.3040618896484 51.79100799560547 146.3009796142578 C 51.78150177001953 146.2978973388672 51.7735710144043 146.2953186035156 51.76406860351563 146.292236328125 C 51.75456237792969 146.2891387939453 51.74325942993164 146.2854614257813 51.73375701904297 146.2823791503906 C 51.7242546081543 146.2792816162109 51.71683883666992 146.2768707275391 51.70734024047852 146.2737731933594 C 51.69783782958984 146.2706756591797 51.68611145019531 146.266845703125 51.67661285400391 146.2637481689453 C 51.66711807250977 146.2606506347656 51.65980529785156 146.2582702636719 51.65031051635742 146.2551574707031 C 51.64081192016602 146.2520599365234 51.62917327880859 146.2482452392578 51.61967849731445 146.2451477050781 C 51.61018371582031 146.2420349121094 51.60240173339844 146.2394866943359 51.59291076660156 146.2363891601563 C 51.58341979980469 146.2332763671875 51.57307815551758 146.2298889160156 51.5635871887207 146.2267761230469 C 51.55410003662109 146.2236633300781 51.54449081420898 146.2205047607422 51.53500366210938 146.2173919677734 C 51.52551651000977 146.2142639160156 51.51708984375 146.2115020751953 51.50760269165039 146.2083740234375 C 51.49811553955078 146.2052612304688 51.48704147338867 146.2016143798828 51.47755813598633 146.198486328125 C 51.46807479858398 146.1953735351563 51.46017456054688 146.1927642822266 51.4506950378418 146.1896362304688 C 51.44121170043945 146.1865081787109 51.43051910400391 146.1829833984375 51.42103958129883 146.1798553466797 C 51.41155624389648 146.1767120361328 51.40304946899414 146.1739044189453 51.39357376098633 146.1707763671875 C 51.38409423828125 146.1676330566406 51.37322616577148 146.1640472412109 51.36375045776367 146.1609039306641 C 51.35427474975586 146.1577606201172 51.34724426269531 146.1554412841797 51.33777236938477 146.1522979736328 C 51.32829666137695 146.1491546630859 51.31584167480469 146.14501953125 51.30636978149414 146.1418762207031 C 51.29689788818359 146.1387329101563 51.29031372070313 146.1365509033203 51.28084182739258 146.1333923339844 C 51.2713737487793 146.1302490234375 51.25873947143555 146.1260528564453 51.24927139282227 146.1228942871094 C 51.23980331420898 146.1197357177734 51.23377990722656 146.1177368164063 51.22431564331055 146.1145782470703 C 51.21484756469727 146.1114196777344 51.20196533203125 146.1071319580078 51.19250106811523 146.1039733886719 C 51.18303680419922 146.1008148193359 51.17696762084961 146.0987854003906 51.16750717163086 146.0956268310547 C 51.15804672241211 146.0924530029297 51.14551544189453 146.0882720947266 51.13605499267578 146.0850982666016 C 51.12659454345703 146.0819396972656 51.11988067626953 146.0796966552734 51.11042404174805 146.0765228271484 C 51.1009635925293 146.0733489990234 51.08878707885742 146.0692749023438 51.07933044433594 146.0661010742188 C 51.06987762451172 146.0629272460938 51.06287002563477 146.0605773925781 51.05341720581055 146.0573883056641 C 51.04396057128906 146.0542144775391 51.03211212158203 146.0502319335938 51.02265930175781 146.0470581054688 C 51.01321029663086 146.0438842773438 51.00635147094727 146.0415649414063 50.99690246582031 146.0383911132813 C 50.98745346069336 146.0352020263672 50.97580337524414 146.0312805175781 50.96635818481445 146.0280914306641 C 50.9569091796875 146.02490234375 50.94926834106445 146.0223236083984 50.93982315063477 146.0191345214844 C 50.93037796020508 146.0159454345703 50.91893005371094 146.0120849609375 50.90948867797852 146.0088806152344 C 50.90004348754883 146.0056915283203 50.89279937744141 146.0032348632813 50.88335418701172 146.0000457763672 C 50.8739128112793 145.9968414306641 50.86223220825195 145.9928894042969 50.85279083251953 145.9896850585938 C 50.84335327148438 145.9864807128906 50.83620071411133 145.9840545654297 50.82676315307617 145.9808502197266 C 50.81732559204102 145.9776458740234 50.8057746887207 145.9737243652344 50.79633712768555 145.9705200195313 C 50.78690338134766 145.9673156738281 50.77978515625 145.9648895263672 50.77035140991211 145.9616851806641 C 50.76091766357422 145.9584655761719 50.74814224243164 145.9541168212891 50.73871231079102 145.9509124755859 C 50.73163986206055 145.9485015869141 50.72148895263672 145.9450378417969 50.71441650390625 145.942626953125 C 50.70498657226563 145.9394073486328 50.69134902954102 145.9347381591797 50.68192291259766 145.9315185546875 C 50.67485046386719 145.9291076660156 50.66548156738281 145.9259033203125 50.65840911865234 145.9234924316406 C 50.64898681640625 145.9202575683594 50.63423156738281 145.9152069091797 50.62480545043945 145.9119873046875 C 50.61774063110352 145.9095611572266 50.60915374755859 145.9066162109375 50.60208892822266 145.9041900634766 C 50.59266662597656 145.9009552001953 50.57813262939453 145.8959808349609 50.56871032714844 145.8927459716797 C 50.56164932250977 145.8903045654297 50.55208587646484 145.8870239257813 50.54502105712891 145.8845977783203 C 50.53560638427734 145.8813629150391 50.52153015136719 145.8765106201172 50.51211166381836 145.8732757568359 C 50.50505065917969 145.8708343505859 50.49568557739258 145.8676147460938 50.48862457275391 145.8651733398438 C 50.47920989990234 145.8619384765625 50.46543884277344 145.857177734375 50.45602798461914 145.8539276123047 C 50.44897079467773 145.8515014648438 50.43893814086914 145.8480377197266 50.43188095092773 145.8455963134766 C 50.4224739074707 145.8423461914063 50.40900802612305 145.8376770019531 50.39960098266602 145.8344268798828 C 50.39254379272461 145.8319854736328 50.38246536254883 145.8284912109375 50.37541198730469 145.8260498046875 C 50.36600875854492 145.8227844238281 50.35227966308594 145.8180236816406 50.34287643432617 145.8147735595703 C 50.33582305908203 145.8123168945313 50.32633972167969 145.8090209960938 50.31928634643555 145.8065795898438 C 50.30988693237305 145.8033142089844 50.29621887207031 145.7985534667969 50.28681945800781 145.7952880859375 C 50.27976989746094 145.7928314208984 50.26959228515625 145.7892913818359 50.26254653930664 145.7868347167969 C 50.25314712524414 145.7835693359375 50.23945617675781 145.7787933349609 50.23006057739258 145.7755126953125 C 50.22301483154297 145.7730560302734 50.21393966674805 145.7698974609375 50.20689392089844 145.7674407958984 C 50.19750213623047 145.76416015625 50.18294906616211 145.7590637207031 50.17355728149414 145.7557830810547 C 50.1665153503418 145.7533264160156 50.15727996826172 145.7500915527344 50.15023803710938 145.7476196289063 C 50.14084625244141 145.7443389892578 50.12635803222656 145.7392578125 50.11697006225586 145.7359771728516 C 50.10993194580078 145.7335052490234 50.10132598876953 145.7304840087891 50.09428787231445 145.7280120849609 C 50.08490371704102 145.7247161865234 50.07063674926758 145.7197113037109 50.06125640869141 145.7164154052734 C 50.05421829223633 145.7139434814453 50.04443359375 145.7104949951172 50.03739929199219 145.7080230712891 C 50.02801895141602 145.7047271728516 50.01365280151367 145.6996612548828 50.00427627563477 145.6963653564453 C 49.99724197387695 145.6938934326172 49.98907089233398 145.6910095214844 49.98203659057617 145.6885223388672 C 49.97266006469727 145.6852111816406 49.95713424682617 145.6797332763672 49.94775772094727 145.6764221191406 C 49.94072723388672 145.6739349365234 49.93317794799805 145.6712799072266 49.9261474609375 145.6687927246094 C 49.91677474975586 145.6654663085938 49.9005241394043 145.6597290039063 49.89115142822266 145.6564025878906 C 49.88412475585938 145.6539154052734 49.87701034545898 145.6513977050781 49.8699836730957 145.6489105224609 C 49.86061859130859 145.6455841064453 49.84442901611328 145.6398468017578 49.83506011962891 145.6365203857422 C 49.82803726196289 145.6340179443359 49.82069396972656 145.6314086914063 49.81366729736328 145.6289215087891 C 49.80196380615234 145.624755859375 49.79035568237305 145.6206359863281 49.77865219116211 145.6164703369141 C 49.77163314819336 145.6139678955078 49.76473617553711 145.6115112304688 49.75771713256836 145.6090087890625 C 49.74367523193359 145.60400390625 49.73630142211914 145.6013793945313 49.72226333618164 145.5963745117188 C 49.71524810791016 145.5938720703125 49.7091064453125 145.5916748046875 49.70208740234375 145.5891723632813 C 49.68805313110352 145.5841522216797 49.67963409423828 145.5811462402344 49.66560363769531 145.5761260986328 C 49.65858840942383 145.5736236572266 49.65310668945313 145.5716552734375 49.64609527587891 145.5691375732422 C 49.63206481933594 145.5641174316406 49.62384033203125 145.5611724853516 49.60981369018555 145.55615234375 C 49.60280227661133 145.5536346435547 49.59678649902344 145.5514678955078 49.58977508544922 145.5489501953125 C 49.57575225830078 145.5439300537109 49.56751251220703 145.5409698486328 49.55349731445313 145.5359191894531 C 49.54648590087891 145.5334014892578 49.54093933105469 145.5314025878906 49.53393173217773 145.5288848876953 C 49.51991653442383 145.5238494873047 49.51147842407227 145.5208129882813 49.49746322631836 145.5157623291016 C 49.49045944213867 145.5132293701172 49.48513412475586 145.5113067626953 49.47812652587891 145.5087890625 C 49.46411895751953 145.5037384033203 49.45464324951172 145.5003051757813 49.44063949584961 145.4952545166016 C 49.43363571166992 145.4927215576172 49.42961502075195 145.4912719726563 49.42261123657227 145.4887390136719 C 49.40860748291016 145.4836730957031 49.39892959594727 145.4801635742188 49.38492965698242 145.47509765625 C 49.3779296875 145.4725646972656 49.37320327758789 145.4708557128906 49.36620712280273 145.4683074951172 C 49.35220718383789 145.4632415771484 49.34289169311523 145.4598693847656 49.32889938354492 145.4547882080078 C 49.32190322875977 145.4522399902344 49.31736755371094 145.4505920410156 49.31037139892578 145.4480438232422 C 49.29637908935547 145.4429626464844 49.28741836547852 145.4397125244141 49.27342987060547 145.4346160888672 C 49.26643753051758 145.4320678710938 49.26091766357422 145.4300689697266 49.25392150878906 145.4275207519531 C 49.23993682861328 145.4224243164063 49.23104095458984 145.4191741943359 49.21706008911133 145.4140777587891 C 49.2100715637207 145.4115295410156 49.20541763305664 145.4098205566406 49.19842529296875 145.4072723388672 C 49.1844482421875 145.4021759033203 49.17469787597656 145.3986053466797 49.16072082519531 145.3934936523438 C 49.15489959716797 145.391357421875 49.14927673339844 145.3893127441406 49.14345169067383 145.3871765136719 C 49.12947845458984 145.3820648193359 49.11786651611328 145.3778076171875 49.10389709472656 145.3726806640625 C 49.09923934936523 145.3709716796875 49.09257507324219 145.3685302734375 49.08792114257813 145.3668212890625 C 49.07395172119141 145.3616943359375 49.06211471557617 145.3573455810547 49.04815292358398 145.3522186279297 C 49.04349899291992 145.3505096435547 49.03668594360352 145.3480072021484 49.03203201293945 145.3462982177734 C 49.01807022094727 145.3411560058594 49.00600814819336 145.3367156982422 48.99205017089844 145.3315734863281 C 48.98740005493164 145.3298645019531 48.98111724853516 145.3275451660156 48.97646331787109 145.3258209228516 C 48.96250915527344 145.3206787109375 48.95062255859375 145.3162994384766 48.93667221069336 145.3111419677734 C 48.93202209472656 145.3094177246094 48.92487335205078 145.3067779541016 48.92022323608398 145.3050689697266 C 48.90627670288086 145.2999114990234 48.89485931396484 145.2956848144531 48.88091278076172 145.29052734375 C 48.87626647949219 145.2888031005859 48.86905670166016 145.2861328125 48.86441040039063 145.2844085693359 C 48.85046768188477 145.2792510986328 48.83929824829102 145.2751007080078 48.82535934448242 145.2699279785156 C 48.82071685791016 145.2682037353516 48.81309127807617 145.265380859375 48.80844497680664 145.2636413574219 C 48.79450607299805 145.2584686279297 48.78361511230469 145.2544250488281 48.76968383789063 145.2492370605469 C 48.76504135131836 145.2475128173828 48.75719833374023 145.2445983886719 48.75255584716797 145.2428588867188 C 48.73862457275391 145.2376861572266 48.72829818725586 145.2338256835938 48.71437072753906 145.2286376953125 C 48.7074089050293 145.2260437011719 48.7035026550293 145.2245788574219 48.69654083251953 145.2219848632813 C 48.6826171875 145.2167816162109 48.67246246337891 145.2129974365234 48.65854263305664 145.2077941894531 C 48.65274429321289 145.2056274414063 48.64704513549805 145.2034912109375 48.64124298095703 145.2013244628906 C 48.62732696533203 145.1961212158203 48.61550140380859 145.1916809082031 48.60158920288086 145.1864776611328 C 48.59695053100586 145.1847381591797 48.59148025512695 145.1826782226563 48.58684539794922 145.1809387207031 C 48.57293319702148 145.1757354736328 48.55967330932617 145.1707458496094 48.54576873779297 145.16552734375 C 48.54113006591797 145.1637878417969 48.53581237792969 145.1617889404297 48.53117752075195 145.1600494384766 C 48.51727294921875 145.1548156738281 48.50430679321289 145.1499328613281 48.49040603637695 145.1446990966797 C 48.48577117919922 145.1429595947266 48.47994995117188 145.1407623291016 48.47531890869141 145.1390228271484 C 48.46141815185547 145.1337890625 48.44844818115234 145.1288909912109 48.43455505371094 145.1236419677734 C 48.42992401123047 145.1219024658203 48.42482757568359 145.1199798583984 48.42019653320313 145.1182250976563 C 48.40630722045898 145.1129760742188 48.39210891723633 145.1076202392578 48.37821960449219 145.1023559570313 C 48.37359237670898 145.1006011962891 48.36983108520508 145.0991821289063 48.36520385742188 145.0974273681641 C 48.351318359375 145.0921783447266 48.33659744262695 145.0865936279297 48.32271575927734 145.0813293457031 C 48.31808853149414 145.0795745849609 48.31418991088867 145.0780944824219 48.30956268310547 145.0763397216797 C 48.29568481445313 145.0710754394531 48.28171157836914 145.0657653808594 48.2678337097168 145.0604858398438 C 48.26321029663086 145.0587310791016 48.25803756713867 145.0567626953125 48.25341415405273 145.0550079345703 C 48.23954010009766 145.0497283935547 48.22583770751953 145.0445098876953 48.21197128295898 145.0392303466797 C 48.20734786987305 145.0374603271484 48.20320129394531 145.035888671875 48.19857788085938 145.0341186523438 C 48.18471145629883 145.0288391113281 48.16990280151367 145.0231781005859 48.15604019165039 145.0178833007813 C 48.15141677856445 145.0161285400391 48.14801025390625 145.0148162841797 48.14339065551758 145.0130615234375 C 48.1295280456543 145.0077514648438 48.11437225341797 145.001953125 48.10051345825195 144.9966583251953 C 48.09589385986328 144.9948883056641 48.09265899658203 144.99365234375 48.08803939819336 144.9918823242188 C 48.07418441772461 144.986572265625 48.05879211425781 144.9806671142578 48.04494094848633 144.975341796875 C 48.04032516479492 144.9735717773438 48.03757858276367 144.9725189208984 48.03296279907227 144.9707489013672 C 48.01911163330078 144.9654388427734 48.0029411315918 144.9592132568359 47.98909759521484 144.9538879394531 C 47.98448181152344 144.9521179199219 47.98247146606445 144.9513397216797 47.97785949707031 144.9495697021484 C 47.96401596069336 144.9442291259766 47.94772720336914 144.9379577636719 47.93388748168945 144.9326324462891 C 47.92927551269531 144.9308471679688 47.92695236206055 144.9299468994141 47.92234039306641 144.9281768798828 C 47.90850448608398 144.9228363037109 47.89241790771484 144.9166259765625 47.87858581542969 144.9112701416016 C 47.87397384643555 144.9094848632813 47.87158203125 144.9085693359375 47.86697006225586 144.9067840576172 C 47.85314178466797 144.9014282226563 47.83648300170898 144.8949890136719 47.82265853881836 144.8896331787109 C 47.8192024230957 144.8882904052734 47.81587600708008 144.8870086669922 47.81241989135742 144.8856658935547 C 47.7985954284668 144.8803100585938 47.78107452392578 144.8735046386719 47.76725387573242 144.8681335449219 C 47.76495361328125 144.8672485351563 47.75940322875977 144.8650970458984 47.75709915161133 144.8641967773438 C 47.74328231811523 144.8588256835938 47.72583770751953 144.8520355224609 47.7120246887207 144.8466644287109 C 47.70972442626953 144.8457641601563 47.70410537719727 144.8435821533203 47.70180511474609 144.8426818847656 C 47.68799209594727 144.8373107910156 47.67062759399414 144.8305358886719 47.65682220458984 144.8251495361328 C 47.65452194213867 144.8242492675781 47.64883422851563 144.8220367431641 47.64653396606445 144.8211364746094 C 47.63272857666016 144.8157501220703 47.61544418334961 144.8089904785156 47.60164260864258 144.8036041259766 C 47.59819412231445 144.80224609375 47.5947380065918 144.8009033203125 47.59128952026367 144.7995452880859 C 47.57748794555664 144.7941436767578 47.55995559692383 144.7872772216797 47.54616165161133 144.7818756103516 C 47.54386520385742 144.7809753417969 47.5388298034668 144.7790069580078 47.53653335571289 144.7781066894531 C 47.52273941040039 144.7726898193359 47.50353622436523 144.7651519775391 47.48974609375 144.7597351074219 C 47.48744964599609 144.7588348388672 47.48478317260742 144.7577819824219 47.48248291015625 144.7568817138672 C 47.46869659423828 144.75146484375 47.44917678833008 144.7437744140625 47.43539428710938 144.7383575439453 C 47.43309783935547 144.7374420166016 47.42881011962891 144.7357635498047 47.42650985717773 144.7348480224609 C 47.4127311706543 144.7294311523438 47.39345169067383 144.7218170166016 47.37967681884766 144.7163848876953 C 47.37738037109375 144.7154846191406 47.37446212768555 144.7143249511719 47.37216567993164 144.7134246826172 C 47.35609436035156 144.7070770263672 47.340087890625 144.7007446289063 47.32402420043945 144.6943969726563 C 47.32172775268555 144.6934814453125 47.31982803344727 144.6927337646484 47.31753540039063 144.6918182373047 C 47.30147171020508 144.6854705810547 47.28588485717773 144.6792907714844 47.26982879638672 144.6729278564453 C 47.26753616333008 144.6720123291016 47.26390075683594 144.6705780029297 47.26160430908203 144.6696624755859 C 47.24784469604492 144.6641998291016 47.22824478149414 144.6564178466797 47.2144889831543 144.6509552001953 C 47.21219635009766 144.6500396728516 47.20912170410156 144.6488189697266 47.20682907104492 144.6479034423828 C 47.19307327270508 144.6424407958984 47.173095703125 144.6344909667969 47.15934753417969 144.6290130615234 C 47.15705490112305 144.6280975341797 47.15428161621094 144.6269989013672 47.15199279785156 144.6260833740234 C 47.13824081420898 144.62060546875 47.11827850341797 144.6126403808594 47.10453796386719 144.6071472167969 C 47.10224533081055 144.6062316894531 47.09907150268555 144.6049652099609 47.09678268432617 144.6040496826172 C 47.08303833007813 144.5985565185547 47.06339645385742 144.5907135009766 47.04965591430664 144.585205078125 C 47.04736709594727 144.5842895507813 47.04418563842773 144.5830230712891 47.04189682006836 144.5821075439453 C 47.02816009521484 144.5765991210938 47.00796127319336 144.5685119628906 46.99422836303711 144.5630035400391 C 46.99193954467773 144.5620880126953 46.98962783813477 144.5611572265625 46.98733901977539 144.5602416992188 C 46.97360992431641 144.5547332763672 46.95307922363281 144.5464782714844 46.93935394287109 144.5409698486328 C 46.93706893920898 144.5400390625 46.93467712402344 144.5390777587891 46.93239212036133 144.5381622314453 C 46.91866683959961 144.5326385498047 46.89877319335938 144.5246276855469 46.88505554199219 144.5191040039063 C 46.88276672363281 144.5181884765625 46.87920761108398 144.5167541503906 46.87691879272461 144.5158233642578 C 46.86320114135742 144.5102996826172 46.8433952331543 144.5023040771484 46.82968521118164 144.4967651367188 C 46.82740020751953 144.495849609375 46.82495498657227 144.4948577880859 46.82266998291016 144.4939422607422 C 46.80667495727539 144.4874725341797 46.790283203125 144.4808502197266 46.77429580688477 144.474365234375 C 46.77201080322266 144.4734497070313 46.77057266235352 144.4728698730469 46.76828765869141 144.4719390869141 C 46.75001525878906 144.4645385742188 46.73764419555664 144.4595336914063 46.71937942504883 144.4521179199219 C 46.71709442138672 144.4511871337891 46.71586990356445 144.4506988525391 46.71358489990234 144.4497680664063 C 46.69532012939453 144.4423522949219 46.68296432495117 144.4373321533203 46.66470718383789 144.4299163818359 C 46.66242599487305 144.4289855957031 46.66096496582031 144.4283905029297 46.65868377685547 144.4274597167969 C 46.64270782470703 144.4209594726563 46.62664413452148 144.4144134521484 46.61067581176758 144.4079132080078 C 46.60839462280273 144.406982421875 46.6054801940918 144.4057922363281 46.60319900512695 144.4048614501953 C 46.58723068237305 144.3983612060547 46.57096099853516 144.3917236328125 46.55500030517578 144.3851928710938 C 46.55271911621094 144.3842620849609 46.55168533325195 144.3838500976563 46.54940795898438 144.3829040527344 C 46.53116607666016 144.3754577636719 46.51841354370117 144.3702392578125 46.50017929077148 144.3627777099609 C 46.49790191650391 144.3618469238281 46.49708557128906 144.3615112304688 46.49480819702148 144.3605804443359 C 46.4765739440918 144.3531188964844 46.46369171142578 144.3478393554688 46.44546890258789 144.3403472900391 C 46.44319152832031 144.3394165039063 46.4425048828125 144.3391418457031 46.44022750854492 144.3381958007813 C 46.42200469970703 144.3307189941406 46.40913391113281 144.325439453125 46.39091873168945 144.3179473876953 C 46.38864135742188 144.3170013427734 46.38766479492188 144.3166046142578 46.3853874206543 144.315673828125 C 46.36717224121094 144.3081817626953 46.35371780395508 144.3026428222656 46.33551025390625 144.2951354980469 C 46.33323669433594 144.294189453125 46.33380126953125 144.29443359375 46.33152770996094 144.2934875488281 C 46.31332015991211 144.2859802246094 46.29965591430664 144.2803497314453 46.28145980834961 144.2728271484375 C 46.2791862487793 144.2718963623047 46.27860641479492 144.2716522216797 46.27633285522461 144.2707061767578 C 46.25813293457031 144.2631988525391 46.24470520019531 144.2576446533203 46.22651290893555 144.2501068115234 C 46.22423934936523 144.2491607666016 46.22447967529297 144.249267578125 46.22220611572266 144.2483215332031 C 46.20401763916016 144.2407836914063 46.19041442871094 144.2351531982422 46.1722297668457 144.2276000976563 C 46.16996002197266 144.2266693115234 46.16958236694336 144.2265014648438 46.16731262207031 144.2255706787109 C 46.14913177490234 144.218017578125 46.13561248779297 144.21240234375 46.11743927001953 144.2048492431641 C 46.11516952514648 144.2039031982422 46.11531066894531 144.2039642333984 46.11304092407227 144.2030181884766 C 46.09486770629883 144.1954498291016 46.08107757568359 144.1897125244141 46.06291198730469 144.1821441650391 C 46.06064224243164 144.1811981201172 46.06082534790039 144.1812744140625 46.05855560302734 144.1803283691406 C 46.04039001464844 144.1727600097656 46.02616500854492 144.1668243408203 46.00800704956055 144.1592407226563 C 46.00574111938477 144.1582794189453 46.00676727294922 144.1587219238281 46.00449752807617 144.1577606201172 C 45.9863395690918 144.1501770019531 45.97211074829102 144.1442260742188 45.95396423339844 144.1366271972656 C 45.95169448852539 144.1356811523438 45.95190048217773 144.1357727050781 45.94963073730469 144.1348266601563 C 45.93148422241211 144.1272277832031 45.91815948486328 144.1216430664063 45.90002059936523 144.1140289306641 C 45.89775085449219 144.1130676269531 45.89694976806641 144.1127319335938 45.89468383789063 144.1117858886719 C 45.87654495239258 144.1041717529297 45.86381912231445 144.0988311767578 45.84568786621094 144.0912017822266 C 45.84342193603516 144.0902557373047 45.84250640869141 144.0898742675781 45.84024047851563 144.0889129638672 C 45.82210922241211 144.0812835693359 45.80941390991211 144.0759429931641 45.79129028320313 144.0683135986328 C 45.78902435302734 144.0673522949219 45.78814315795898 144.0669860839844 45.7858772277832 144.0660247802734 C 45.76775360107422 144.0583801269531 45.75473403930664 144.0528869628906 45.73661804199219 144.0452423095703 C 45.73435592651367 144.0442810058594 45.73417282104492 144.0442047119141 45.73191070556641 144.0432586669922 C 45.71379470825195 144.0355987548828 45.69985580444336 144.0297088623047 45.68174743652344 144.0220489501953 C 45.67948532104492 144.0210876464844 45.68031692504883 144.0214385986328 45.67805480957031 144.0204772949219 C 45.65995025634766 144.0128173828125 45.64573669433594 144.0067901611328 45.62763977050781 143.9991149902344 C 45.6253776550293 143.9981536865234 45.62582015991211 143.9983367919922 45.62355804443359 143.9973754882813 C 45.60546112060547 143.9897003173828 45.59112548828125 143.9836120605469 45.57303619384766 143.9759216308594 C 45.57077789306641 143.9749603271484 45.57184600830078 143.9754180908203 45.56958389282227 143.9744567871094 C 45.55149459838867 143.9667663574219 45.53760528564453 143.9608612060547 45.51952743530273 143.9531555175781 C 45.51726531982422 143.9521942138672 45.51687240600586 143.9520263671875 45.51461410522461 143.9510650634766 C 45.49653625488281 143.943359375 45.48294830322266 143.9375610351563 45.46487808227539 143.9298400878906 C 45.46261978149414 143.9288787841797 45.46306991577148 143.9290771484375 45.46081161499023 143.9281005859375 C 45.44274139404297 143.9203948974609 45.42851638793945 143.914306640625 45.41045379638672 143.9065704345703 C 45.40819549560547 143.9056091308594 45.40919494628906 143.9060363769531 45.40693664550781 143.9050750732422 C 45.38887405395508 143.8973388671875 45.373046875 143.8905639648438 45.35499572753906 143.8828125 C 45.35499572753906 143.8828125 45.35394287109375 143.8823699951172 45.35394287109375 143.8823699951172 C 45.33588790893555 143.8746185302734 45.31942367553711 143.8675537109375 45.3013801574707 143.8598022460938 C 45.3013801574707 143.8598022460938 45.29925918579102 143.85888671875 45.29925918579102 143.85888671875 C 45.28121566772461 143.8511352539063 45.26484298706055 143.8440856933594 45.24680328369141 143.8363189697266 C 45.24680328369141 143.8363189697266 45.24558639526367 143.8357849121094 45.24558639526367 143.8357849121094 C 45.2275505065918 143.8280181884766 45.21089172363281 143.8208465576172 45.19286346435547 143.8130493164063 C 45.19286346435547 143.8130493164063 45.19132995605469 143.8123931884766 45.19132995605469 143.8123931884766 C 45.17330169677734 143.8046112060547 45.15723037719727 143.7976684570313 45.13920974731445 143.7898712158203 C 45.13920974731445 143.7898712158203 45.13682556152344 143.7888336181641 45.13682556152344 143.7888336181641 C 45.11880493164063 143.7810363769531 45.10355377197266 143.7744445800781 45.08554077148438 143.7666320800781 C 45.08554077148438 143.7666320800781 45.08241653442383 143.7652740478516 45.08241653442383 143.7652740478516 C 45.06440353393555 143.7574615478516 45.04924392700195 143.7508850097656 45.0312385559082 143.7430572509766 C 45.0312385559082 143.7430572509766 45.02867126464844 143.741943359375 45.02867126464844 143.741943359375 C 45.01066970825195 143.734130859375 44.99544143676758 143.7275085449219 44.97744750976563 143.7196655273438 C 44.97744750976563 143.7196655273438 44.97447204589844 143.7183685302734 44.97447204589844 143.7183685302734 C 44.95647811889648 143.7105407714844 44.94166564941406 143.7040710449219 44.92367935180664 143.6962280273438 C 44.92255401611328 143.6957397460938 44.92142486572266 143.6952514648438 44.9202995300293 143.6947631835938 C 44.90231704711914 143.6869049072266 44.88666915893555 143.6800689697266 44.86869049072266 143.6722106933594 C 44.86869049072266 143.6722106933594 44.8674201965332 143.6716613769531 44.8674201965332 143.6716613769531 C 44.84944152832031 143.6637878417969 44.83271789550781 143.6564788818359 44.81475067138672 143.6485900878906 C 44.81475067138672 143.6485900878906 44.81350326538086 143.6480560302734 44.81350326538086 143.6480560302734 C 44.79553604125977 143.6401824951172 44.77829742431641 143.6326141357422 44.76033782958984 143.6247253417969 C 44.76033782958984 143.6247253417969 44.76012802124023 143.6246337890625 44.76012802124023 143.6246337890625 C 44.74216842651367 143.6167449951172 44.72451400756836 143.6089782714844 44.70656204223633 143.6010894775391 C 44.70656204223633 143.6010894775391 44.70616912841797 143.6009063720703 44.70616912841797 143.6009063720703 C 44.68821716308594 143.593017578125 44.67122268676758 143.5855255126953 44.65327835083008 143.5776062011719 C 44.65327835083008 143.5776062011719 44.65177154541016 143.5769500732422 44.65177154541016 143.5769500732422 C 44.63383102416992 143.5690307617188 44.61709976196289 143.5616455078125 44.59916687011719 143.5537109375 C 44.59916687011719 143.5537109375 44.5982666015625 143.5533142089844 44.5982666015625 143.5533142089844 C 39.80979919433594 141.4368591308594 35.32789993286133 138.8552093505859 31.19159317016602 135.8775329589844 C 31.19159317016602 135.8775329589844 31.19118309020996 135.8772277832031 31.19118309020996 135.8772277832031 C 31.17569160461426 135.8660888671875 31.16096687316895 135.85546875 31.14548492431641 135.8443145751953 C 31.14548492431641 135.8443145751953 31.14437484741211 135.843505859375 31.14437484741211 135.843505859375 C 31.12889289855957 135.8323516845703 31.11465072631836 135.8220672607422 31.09917831420898 135.8108978271484 C 31.09917831420898 135.8108978271484 31.09783172607422 135.8099212646484 31.09783172607422 135.8099212646484 C 31.08235931396484 135.7987518310547 31.0677547454834 135.7881927490234 31.05229187011719 135.7770080566406 C 31.05229187011719 135.7770080566406 31.05190086364746 135.7767181396484 31.05190086364746 135.7767181396484 C 31.03643798828125 135.7655334472656 31.02119064331055 135.7545013427734 31.00573921203613 135.7433013916016 C 31.00573921203613 135.7433013916016 31.00570678710938 135.7432861328125 31.00570678710938 135.7432861328125 C 30.99025344848633 135.7320861816406 30.97509956359863 135.7210998535156 30.95965766906738 135.7098846435547 C 30.95965766906738 135.7098846435547 30.9591007232666 135.7094879150391 30.9591007232666 135.7094879150391 C 30.92821311950684 135.6870727539063 30.89806938171387 135.6651458740234 30.86722183227539 135.6427001953125 C 30.86722183227539 135.6427001953125 30.86633491516113 135.6420440673828 30.86633491516113 135.6420440673828 C 30.83548736572266 135.6195831298828 30.8059196472168 135.5980224609375 30.77511215209961 135.5755157470703 C 30.77511215209961 135.5755157470703 30.7734546661377 135.5743103027344 30.7734546661377 135.5743103027344 C 30.7580509185791 135.5630645751953 30.74437141418457 135.5530548095703 30.72897720336914 135.5417938232422 C 30.72897720336914 135.5417938232422 30.72721672058105 135.5405120849609 30.72721672058105 135.5405120849609 C 30.71182060241699 135.5292510986328 30.69793510437012 135.5190734863281 30.68255043029785 135.5077972412109 C 30.68255043029785 135.5077972412109 30.68130493164063 135.5068969726563 30.68130493164063 135.5068969726563 C 30.66592025756836 135.4956207275391 30.65212440490723 135.4855041503906 30.63674926757813 135.4742126464844 C 30.63674926757813 135.4742126464844 30.63482666015625 135.4728088378906 30.63482666015625 135.4728088378906 C 30.61945152282715 135.4615173339844 30.60574913024902 135.4514465332031 30.59038352966309 135.4401550292969 C 30.59038352966309 135.4401550292969 30.5889720916748 135.4391174316406 30.5889720916748 135.4391174316406 C 30.57360649108887 135.4278259277344 30.55970001220703 135.4175872802734 30.54434585571289 135.4062805175781 C 30.54434585571289 135.4062805175781 30.54284858703613 135.4051818847656 30.54284858703613 135.4051818847656 C 30.52749443054199 135.3938751220703 30.51368141174316 135.3836975097656 30.49833488464355 135.3723754882813 C 30.49833488464355 135.3723754882813 30.49675750732422 135.3712158203125 30.49675750732422 135.3712158203125 C 30.48141098022461 135.3598937988281 30.46768951416016 135.3497619628906 30.45235443115234 135.3384399414063 C 30.45235443115234 135.3384399414063 30.45069313049316 135.3372039794922 30.45069313049316 135.3372039794922 C 30.43535614013672 135.3258819580078 30.42142868041992 135.3155822753906 30.40610313415527 135.3042449951172 C 30.40610313415527 135.3042449951172 30.40495872497559 135.3033905029297 30.40495872497559 135.3033905029297 C 30.38963317871094 135.2920532226563 30.37579727172852 135.2818145751953 30.36048126220703 135.2704620361328 C 30.36048126220703 135.2704620361328 30.3586540222168 135.2691040039063 30.3586540222168 135.2691040039063 C 30.34333801269531 135.2577514648438 30.33011054992676 135.2479400634766 30.31480407714844 135.2365875244141 C 30.31480407714844 135.2365875244141 30.31242942810059 135.2348175048828 30.31242942810059 135.2348175048828 C 30.29712295532227 135.2234649658203 30.28463554382324 135.2141876220703 30.26933860778809 135.2028045654297 C 30.26742744445801 135.2013854980469 30.26803016662598 135.2018432617188 30.2661190032959 135.2004089355469 C 30.25082206726074 135.1890411376953 30.23920631408691 135.1804046630859 30.22391891479492 135.1690216064453 C 30.22200775146484 135.1675872802734 30.22169876098633 135.1673583984375 30.21978759765625 135.1659393310547 C 30.20450019836426 135.1545562744141 30.19365882873535 135.1464691162109 30.17838287353516 135.1350860595703 C 30.17647361755371 135.1336517333984 30.1755428314209 135.1329650878906 30.17363166809082 135.1315307617188 C 30.15835571289063 135.1201477050781 30.14719009399414 135.1118011474609 30.13192176818848 135.1004028320313 C 30.13001441955566 135.0989685058594 30.13036918640137 135.0992431640625 30.12845993041992 135.0978088378906 C 30.11319351196289 135.0864105224609 30.10114669799805 135.0774078369141 30.08588981628418 135.0659790039063 C 30.08398246765137 135.0645599365234 30.08485412597656 135.0652160644531 30.08294868469238 135.0637817382813 C 30.06768989562988 135.0523681640625 30.05531883239746 135.0431060791016 30.04007148742676 135.0316772460938 C 30.03911972045898 135.0309600830078 30.03817367553711 135.0302581787109 30.0372200012207 135.029541015625 C 30.02197265625 135.0181121826172 30.00962066650391 135.0088500976563 29.99438285827637 134.9974060058594 C 29.99247932434082 134.9959716796875 29.99335670471191 134.9966430664063 29.99145317077637 134.9952087402344 C 29.97621536254883 134.9837646484375 29.96430206298828 134.9748229980469 29.94907379150391 134.9633636474609 C 29.94717025756836 134.9619445800781 29.94726943969727 134.9620208740234 29.94536590576172 134.9605865478516 C 29.93013763427734 134.9491271972656 29.91795349121094 134.9399719238281 29.90273666381836 134.9284973144531 C 29.90273666381836 134.9284973144531 29.90036392211914 134.9267120361328 29.90036392211914 134.9267120361328 C 29.88514709472656 134.9152526855469 29.87263298034668 134.9058227539063 29.85742378234863 134.8943634033203 C 29.85552215576172 134.8929290771484 29.85629844665527 134.8935089111328 29.85439682006836 134.8920745849609 C 29.83918952941895 134.8805999755859 29.82698249816895 134.8713836669922 29.8117847442627 134.8599090576172 C 29.80988502502441 134.8584747314453 29.81071662902832 134.8591003417969 29.80881690979004 134.857666015625 C 29.79361724853516 134.8461761474609 29.78171157836914 134.8371734619141 29.76652336120605 134.82568359375 C 29.76462554931641 134.8242492675781 29.76481437683105 134.8243865966797 29.76291656494141 134.8229522705078 C 29.74772834777832 134.8114624023438 29.73576545715332 134.8023986816406 29.7205867767334 134.7908935546875 C 29.71963691711426 134.7901763916016 29.71870040893555 134.7894744873047 29.71775054931641 134.7887573242188 C 29.70257186889648 134.7772521972656 29.69090270996094 134.7684020996094 29.67573547363281 134.7568817138672 C 29.67383766174316 134.7554473876953 29.6734561920166 134.7551574707031 29.67155838012695 134.7537078857422 C 29.65639114379883 134.7422027587891 29.64523506164551 134.7337188720703 29.63007545471191 134.7221984863281 C 29.62818145751953 134.7207641601563 29.62812805175781 134.7207183837891 29.62623405456543 134.7192840576172 C 29.61107444763184 134.7077484130859 29.59952545166016 134.6989593505859 29.58437728881836 134.6874237060547 C 29.58248329162598 134.6859893798828 29.58285522460938 134.6862640380859 29.58096313476563 134.6848297119141 C 29.5658130645752 134.6732940673828 29.5545825958252 134.6647338867188 29.53944396972656 134.6531829833984 C 29.53755187988281 134.6517486572266 29.53701210021973 134.6513366699219 29.53512001037598 134.6498870849609 C 29.51997947692871 134.6383361816406 29.5086784362793 134.6297149658203 29.49354934692383 134.6181488037109 C 29.49165725708008 134.6167144775391 29.49205589294434 134.6170196533203 29.49016380310059 134.6155700683594 C 29.47503471374512 134.60400390625 29.4636116027832 134.5952758789063 29.4484920501709 134.5837097167969 C 29.44660186767578 134.5822601318359 29.44636344909668 134.5820770263672 29.44447326660156 134.5806274414063 C 29.42935371398926 134.5690612792969 29.4184398651123 134.5607147216797 29.40332984924316 134.5491333007813 C 29.40144157409668 134.5476837158203 29.40083694458008 134.5472106933594 29.39894676208496 134.5457763671875 C 29.38383865356445 134.5341949462891 29.37301063537598 134.52587890625 29.35791015625 134.5142974853516 C 29.35602188110352 134.5128479003906 29.35556983947754 134.5124969482422 29.35368347167969 134.5110473632813 C 29.33858299255371 134.4994659423828 29.32814598083496 134.4914398193359 29.31305694580078 134.4798431396484 C 29.31117057800293 134.4783935546875 29.30990982055664 134.4774169921875 29.30802345275879 134.4759674072266 C 29.29293251037598 134.4643707275391 29.28264808654785 134.4564514160156 29.26756858825684 134.4448394775391 C 29.26568412780762 134.4433898925781 29.2648868560791 134.4427795410156 29.26300048828125 134.4413299560547 C 29.24792098999023 134.4297180175781 29.23792457580566 134.4220123291016 29.22285461425781 134.4103851318359 C 29.22097206115723 134.408935546875 29.21914672851563 134.4075317382813 29.21726417541504 134.4060821533203 C 29.20219421386719 134.3944549560547 29.19222259521484 134.3867492675781 29.17716217041016 134.3751220703125 C 29.17527961730957 134.3736724853516 29.17444801330566 134.3730316162109 29.17256546020508 134.3715667724609 C 29.15938758850098 134.3613891601563 29.14587783813477 134.3509521484375 29.1327075958252 134.3407592773438 C 29.13082695007324 134.3393096923828 29.12856864929199 134.3375549316406 29.12668609619141 134.3361053466797 C 29.11540031433105 134.3273620605469 29.09889030456543 134.3145904541016 29.08761024475098 134.3058471679688 C 29.08572959899902 134.3043823242188 29.08339309692383 134.3025817871094 29.08151245117188 134.3011169433594 C 29.07023429870605 134.2923736572266 29.05387115478516 134.2796783447266 29.0425968170166 134.2709350585938 C 29.04071807861328 134.2694854736328 29.03810691833496 134.2674560546875 29.03622817993164 134.2659912109375 C 29.02495765686035 134.2572479248047 29.00940895080566 134.2451629638672 28.99814224243164 134.2364044189453 C 28.99626541137695 134.2349548339844 28.99249076843262 134.2320251464844 28.99061393737793 134.2305603027344 C 28.97934913635254 134.2218017578125 28.9637451171875 134.2096557617188 28.95248603820801 134.2008972167969 C 28.95061111450195 134.1994323730469 28.94805145263672 134.1974487304688 28.94617462158203 134.1959838867188 C 28.93491744995117 134.1872100830078 28.91909980773926 134.1748962402344 28.9078483581543 134.1661224365234 C 28.90597343444824 134.1646575927734 28.90265274047852 134.1620635986328 28.90077781677246 134.1605987548828 C 28.88952827453613 134.1518249511719 28.87353897094727 134.1393432617188 28.86229515075684 134.1305694580078 C 28.86042022705078 134.1291046142578 28.85823059082031 134.1273956298828 28.85635757446289 134.1259307861328 C 28.84511566162109 134.1171417236328 28.82932090759277 134.1047973632813 28.81808471679688 134.0960083007813 C 28.81621170043945 134.0945434570313 28.81259918212891 134.0917205810547 28.81072616577148 134.0902557373047 C 28.79949188232422 134.0814666748047 28.78350257873535 134.0689544677734 28.77227401733398 134.0601501464844 C 28.77040100097656 134.0586853027344 28.76847839355469 134.0571746826172 28.7666072845459 134.0557098388672 C 28.75538063049316 134.0469055175781 28.73971366882324 134.0346221923828 28.72849273681641 134.0258178710938 C 28.72662162780762 134.0243530273438 28.72236061096191 134.0210113525391 28.72048950195313 134.0195465087891 C 28.70927047729492 134.0107421875 28.69439506530762 133.9990539550781 28.68318176269531 133.990234375 C 28.68131256103516 133.98876953125 28.67803573608398 133.9861907958984 28.67616653442383 133.9847259521484 C 28.66495513916016 133.9759063720703 28.64933013916016 133.963623046875 28.63812255859375 133.9548034667969 C 28.63625526428223 133.9533233642578 28.63341522216797 133.9510955810547 28.63154792785645 133.9496307373047 C 28.62034225463867 133.9407958984375 28.60480499267578 133.9285583496094 28.59360504150391 133.9197235107422 C 28.59173965454102 133.9182586669922 28.58831405639648 133.9155578613281 28.58644866943359 133.9140930175781 C 28.57525062561035 133.9052581787109 28.56039237976074 133.8935241699219 28.5492000579834 133.8846893310547 C 28.54733467102051 133.8832244873047 28.54316139221191 133.8799285888672 28.54129600524902 133.8784484863281 C 28.53010559082031 133.8696136474609 28.51508140563965 133.8577423095703 28.50389671325684 133.8488922119141 C 28.50203323364258 133.847412109375 28.49896621704102 133.8449859619141 28.49710273742676 133.8435211181641 C 28.48591995239258 133.8346710205078 28.47097969055176 133.8228454589844 28.45980453491211 133.8139953613281 C 28.45794105529785 133.8125152587891 28.4536190032959 133.8090972900391 28.45175743103027 133.8076171875 C 28.44058227539063 133.7987670898438 28.42593193054199 133.7871551513672 28.41476249694824 133.7782897949219 C 28.41290092468262 133.7768096923828 28.40928268432617 133.7739410400391 28.40742111206055 133.7724609375 C 28.39625358581543 133.7635955810547 28.38168716430664 133.7520294189453 28.37052536010742 133.7431640625 C 28.36866569519043 133.7416839599609 28.36419868469238 133.7381286621094 28.36233711242676 133.7366638183594 C 28.35117721557617 133.727783203125 28.33708572387695 133.7165832519531 28.32593154907227 133.7077026367188 C 28.32407379150391 133.7062225341797 28.31953239440918 133.7026062011719 28.31767272949219 133.7011260986328 C 28.30652046203613 133.6922454833984 28.29212951660156 133.6807861328125 28.28098297119141 133.6719055175781 C 28.27912521362305 133.6704254150391 28.27528190612793 133.6673583984375 28.27342414855957 133.6658782958984 C 28.26227951049805 133.656982421875 28.24797248840332 133.6455688476563 28.2368335723877 133.6366882324219 C 28.23311996459961 133.6337127685547 28.23214721679688 133.6329345703125 28.22843360900879 133.6299743652344 C 28.2172966003418 133.6210784912109 28.20307731628418 133.6097106933594 28.19194602966309 133.6008148193359 C 28.19009017944336 133.5993347167969 28.18610000610352 133.5961456298828 28.18424415588379 133.5946502685547 C 28.1731128692627 133.5857543945313 28.15839767456055 133.573974609375 28.14727401733398 133.5650634765625 C 28.14542007446289 133.5635833740234 28.14175033569336 133.5606384277344 28.1398983001709 133.5591583251953 C 28.12877464294434 133.5502471923828 28.11457443237305 133.5388641357422 28.10345649719238 133.5299530029297 C 28.09975051879883 133.5269775390625 28.09854888916016 133.5260162353516 28.0948429107666 133.5230407714844 C 28.0837287902832 133.5141143798828 28.06924819946289 133.5024871826172 28.05813789367676 133.4935760498047 C 28.05628776550293 133.4920806884766 28.05293083190918 133.4893798828125 28.05107879638672 133.4878997802734 C 28.03997230529785 133.4789733886719 28.02544784545898 133.46728515625 28.01434516906738 133.4583587646484 C 28.01249504089355 133.4568786621094 28.00797843933105 133.4532318115234 28.00612831115723 133.4517517089844 C 27.99502944946289 133.4428100585938 27.98127555847168 133.4317321777344 27.97018241882324 133.4227905273438 C 27.96648406982422 133.4198150634766 27.96521186828613 133.4187927246094 27.96151351928711 133.4158172607422 C 27.95042037963867 133.4068603515625 27.93679809570313 133.3958740234375 27.92571258544922 133.3869323730469 C 27.92201614379883 133.3839416503906 27.92084503173828 133.3829956054688 27.91715049743652 133.3800201416016 C 27.90606498718262 133.3710632324219 27.89285087585449 133.3603973388672 27.88177108764648 133.3514404296875 C 27.87807846069336 133.3484497070313 27.87623977661133 133.3469696044922 27.8725471496582 133.3439788818359 C 27.86146926879883 133.3350219726563 27.84917259216309 133.3250732421875 27.83810043334961 133.3161010742188 C 27.83440971374512 133.3131103515625 27.8313102722168 133.3106079101563 27.8276195526123 133.3076171875 C 27.81655120849609 133.2986602783203 27.80447959899902 133.2888641357422 27.79341506958008 133.2798919677734 C 27.78972625732422 133.2769012451172 27.78745460510254 133.2750701904297 27.78376770019531 133.2720794677734 C 27.772705078125 133.2630920410156 27.76012229919434 133.2528839111328 27.74906539916992 133.2439117431641 C 27.74538040161133 133.2409057617188 27.74332427978516 133.2392425537109 27.73963928222656 133.2362518310547 C 27.72858428955078 133.2272644042969 27.71594047546387 133.2169799804688 27.70489120483398 133.2079925537109 C 27.70120811462402 133.2050018310547 27.69907760620117 133.2032775878906 27.69539642333984 133.2002716064453 C 27.68434906005859 133.1912841796875 27.67193222045898 133.1811676025391 27.66089057922363 133.1721801757813 C 27.6572093963623 133.1691741943359 27.65471839904785 133.1671447753906 27.65103912353516 133.1641540527344 C 27.63999938964844 133.1551513671875 27.62803268432617 133.1454010009766 27.61699867248535 133.1363830566406 C 27.61332130432129 133.1333923339844 27.61030960083008 133.1309356689453 27.60663223266602 133.1279296875 C 27.59560012817383 133.1189270019531 27.58357238769531 133.1091003417969 27.57254600524902 133.1000823974609 C 27.56887054443359 133.0970916748047 27.56652450561523 133.0951690673828 27.5628490447998 133.0921630859375 C 27.55182456970215 133.0831451416016 27.53969573974609 133.0732269287109 27.5286750793457 133.064208984375 C 27.52500343322754 133.0612030029297 27.52221298217773 133.0589141845703 27.51854133605957 133.055908203125 C 27.50752449035645 133.0468902587891 27.4954776763916 133.0370178222656 27.48446655273438 133.0279846191406 C 27.48079490661621 133.0249786376953 27.47830390930176 133.0229339599609 27.47463417053223 133.0199279785156 C 27.46362495422363 133.0108947753906 27.45124626159668 133.0007476806641 27.44024085998535 132.99169921875 C 27.43657302856445 132.9886932373047 27.43447113037109 132.9869689941406 27.4308032989502 132.9839477539063 C 27.41980171203613 132.9749145507813 27.40804481506348 132.9652557373047 27.39704895019531 132.9562072753906 C 27.39338302612305 132.9532012939453 27.3896656036377 132.9501342773438 27.38600158691406 132.9471282958984 C 27.3750057220459 132.9380798339844 27.36370658874512 132.9287719726563 27.35271835327148 132.9197235107422 C 27.34905433654785 132.9167175292969 27.34605979919434 132.9142456054688 27.3423957824707 132.9112243652344 C 27.3314094543457 132.9021759033203 27.32022666931152 132.8929595947266 27.30924606323242 132.8838958740234 C 27.30558395385742 132.8808746337891 27.30150604248047 132.8775024414063 27.2978458404541 132.8744812011719 C 27.28686714172363 132.8654327392578 27.27627754211426 132.856689453125 27.26530265808105 132.8476104736328 C 27.26164436340332 132.8445892333984 27.25778007507324 132.8414001464844 27.25412178039551 132.83837890625 C 27.24315071105957 132.8293151855469 27.23250007629395 132.8204956054688 27.22153472900391 132.8114318847656 C 27.2178783416748 132.8083953857422 27.21379280090332 132.8050231933594 27.21013832092285 132.8019866943359 C 27.19917297363281 132.7929229736328 27.1888542175293 132.7843780517578 27.17789649963379 132.7752838134766 C 27.17424201965332 132.7722625732422 27.16973495483398 132.7685241699219 27.16608238220215 132.7655029296875 C 27.15512657165527 132.7564086914063 27.14448547363281 132.7475891113281 27.1335334777832 132.7384948730469 C 27.12988471984863 132.7354583740234 27.12657928466797 132.7327270507813 27.1229305267334 132.7296905517578 C 27.11198043823242 132.7205963134766 27.1008243560791 132.7113342285156 27.08987998962402 132.7022247314453 C 27.08623313903809 132.6992034912109 27.08254051208496 132.6961212158203 27.07889366149902 132.6930999755859 C 27.06795120239258 132.6839904785156 27.05709266662598 132.6749572753906 27.04615592956543 132.6658477783203 C 27.04251098632813 132.6628112792969 27.03875160217285 132.6596832275391 27.03510665893555 132.6566467285156 C 27.02417182922363 132.6475372314453 27.01339149475098 132.6385498046875 27.00246238708496 132.6294403076172 C 26.99881935119629 132.6264038085938 26.99484252929688 132.6230773925781 26.9911994934082 132.6200408935547 C 26.98027420043945 132.6109313964844 26.97046089172363 132.6027374267578 26.95953941345215 132.5936126708984 C 26.95590019226074 132.590576171875 26.95035171508789 132.5859375 26.94671249389648 132.5829010009766 C 26.93579292297363 132.5737762451172 26.92681503295898 132.5662689208984 26.91590309143066 132.5571441650391 C 26.91226387023926 132.5541076660156 26.90682601928711 132.5495452880859 26.90318870544434 132.5465087890625 C 26.89227676391602 132.5373687744141 26.88393020629883 132.5303802490234 26.87302398681641 132.5212554931641 C 26.8675708770752 132.5166778564453 26.86425018310547 132.5139007568359 26.85879707336426 132.5093231201172 C 26.8478946685791 132.5001831054688 26.83982849121094 132.4934234619141 26.82892990112305 132.4842834472656 C 26.82529640197754 132.4812316894531 26.81931686401367 132.4762115478516 26.81568336486816 132.4731597900391 C 26.80478858947754 132.4640197753906 26.79610824584961 132.4567260742188 26.78521728515625 132.4475708007813 C 26.78158760070801 132.4445190429688 26.77585220336914 132.439697265625 26.7722225189209 132.4366455078125 C 26.76133346557617 132.427490234375 26.75264739990234 132.4201812744141 26.74176406860352 132.4110260009766 C 26.73813629150391 132.4079742431641 26.73224258422852 132.4030151367188 26.72861671447754 132.3999481201172 C 26.71773529052734 132.3907928466797 26.70952224731445 132.3838653564453 26.69864654541016 132.3747100830078 C 26.69320869445801 132.3701171875 26.69014549255371 132.3675384521484 26.68470764160156 132.3629455566406 C 26.6738338470459 132.3537750244141 26.66625022888184 132.3473815917969 26.65538215637207 132.3382110595703 C 26.64994812011719 132.3336181640625 26.64643859863281 132.3306579589844 26.64100646972656 132.3260650634766 C 26.63014030456543 132.3168792724609 26.62226867675781 132.3102264404297 26.61140823364258 132.3010406494141 C 26.6077880859375 132.2979888916016 26.6016960144043 132.2928314208984 26.59807777404785 132.2897796630859 C 26.58721923828125 132.2805938720703 26.57925796508789 132.2738494873047 26.56840705871582 132.2646636962891 C 26.56298065185547 132.2600555419922 26.55981254577637 132.2573852539063 26.55438804626465 132.2527770996094 C 26.54353713989258 132.2435913085938 26.53500938415527 132.2363586425781 26.5241641998291 132.2271575927734 C 26.52054786682129 132.2240905761719 26.51531028747559 132.2196502685547 26.51169586181641 132.2165832519531 C 26.50085258483887 132.2073822021484 26.49242210388184 132.2002258300781 26.4815845489502 132.1910095214844 C 26.47616577148438 132.1864166259766 26.47278785705566 132.1835327148438 26.46737098693848 132.1789398193359 C 26.45653533935547 132.1697235107422 26.44913482666016 132.1634368896484 26.43830490112305 132.1542205810547 C 26.43288993835449 132.1496124267578 26.42958641052246 132.1468048095703 26.42417335510254 132.1421966552734 C 26.41334533691406 132.1329803466797 26.40582656860352 132.1265716552734 26.39500427246094 132.1173400878906 C 26.38959312438965 132.1127319335938 26.38628387451172 132.1099090576172 26.38087272644043 132.1053009033203 C 26.37005233764648 132.0960845947266 26.36310386657715 132.0901489257813 26.3522891998291 132.0809173583984 C 26.34688186645508 132.0763092041016 26.34245491027832 132.0725250244141 26.33704948425293 132.0679168701172 C 26.32623672485352 132.0586700439453 26.31919479370117 132.0526580810547 26.30838775634766 132.0434265136719 C 26.3029842376709 132.0388031005859 26.29987525939941 132.0361480712891 26.29447364807129 132.0315246582031 C 26.28366851806641 132.0222778320313 26.27635955810547 132.0160369873047 26.26556015014648 132.0067901611328 C 26.26016044616699 132.0021667480469 26.2560863494873 131.9986724853516 26.25068855285645 131.9940490722656 C 26.23989105224609 131.9848022460938 26.23358154296875 131.9794006347656 26.22279167175293 131.9701385498047 C 26.21739387512207 131.9655151367188 26.21269226074219 131.9614868164063 26.20729827880859 131.9568634033203 C 26.19650840759277 131.9476013183594 26.19045448303223 131.9423980712891 26.1796703338623 131.9331359863281 C 26.17427825927734 131.9285125732422 26.16951370239258 131.9244232177734 26.16412353515625 131.9197845458984 C 26.15334129333496 131.9105224609375 26.14751052856445 131.905517578125 26.1367359161377 131.896240234375 C 26.13134765625 131.8916168212891 26.12621307373047 131.8871917724609 26.12082672119141 131.8825531005859 C 26.11005210876465 131.873291015625 26.10411071777344 131.8681793212891 26.09334182739258 131.8589019775391 C 26.08795738220215 131.8542633056641 26.08343124389648 131.8503570556641 26.07804679870605 131.8457183837891 C 26.06728172302246 131.8364410400391 26.06093978881836 131.8309783935547 26.05018043518066 131.8216857910156 C 26.0447998046875 131.8170471191406 26.0406494140625 131.8134613037109 26.03526878356934 131.8088226318359 C 26.02451133728027 131.7995300292969 26.01776504516602 131.7937164306641 26.00701141357422 131.784423828125 C 26.00163459777832 131.7797698974609 25.99739456176758 131.7761077880859 25.99201774597168 131.7714538574219 C 25.98305892944336 131.7637176513672 25.9738826751709 131.7557830810547 25.96492767333984 131.7480316162109 C 25.95955467224121 131.7433776855469 25.95368385314941 131.7382965087891 25.94831275939941 131.733642578125 C 25.9411506652832 131.7274475097656 25.9293155670166 131.7171936035156 25.92215538024902 131.7109832763672 C 25.91678619384766 131.7063293457031 25.91030693054199 131.7007141113281 25.90493774414063 131.6960601806641 C 25.89778137207031 131.6898498535156 25.88632965087891 131.6799163818359 25.87917518615723 131.6737060546875 C 25.87380981445313 131.6690521240234 25.86763572692871 131.6636962890625 25.86227226257324 131.6590270996094 C 25.8551197052002 131.6528167724609 25.84359550476074 131.6428070068359 25.83644676208496 131.6365966796875 C 25.83108520507813 131.6319274902344 25.82455635070801 131.6262512207031 25.8191967010498 131.62158203125 C 25.81204986572266 131.6153717041016 25.80072212219238 131.6055145263672 25.7935791015625 131.5992889404297 C 25.78822135925293 131.5946350097656 25.78167724609375 131.5889282226563 25.77632141113281 131.5842590332031 C 25.76918029785156 131.5780487060547 25.7579231262207 131.5682373046875 25.75078392028809 131.56201171875 C 25.74542999267578 131.5573425292969 25.7387866973877 131.5515441894531 25.73343276977539 131.546875 C 25.72629737854004 131.5406494140625 25.71513366699219 131.5308990478516 25.70800018310547 131.5246734619141 C 25.70265007019043 131.5199890136719 25.69594764709473 131.5141448974609 25.69059753417969 131.5094604492188 C 25.6834659576416 131.5032348632813 25.67205810546875 131.4932556152344 25.6649284362793 131.4870147705078 C 25.65958213806152 131.4823455810547 25.6534538269043 131.4769897460938 25.64810943603516 131.4723052978516 C 25.64098358154297 131.466064453125 25.6296443939209 131.4561462402344 25.62252235412598 131.4499053955078 C 25.61717987060547 131.4452209472656 25.61036109924316 131.4392395019531 25.60501861572266 131.4345550537109 C 25.59789848327637 131.4283142089844 25.58726501464844 131.4189910888672 25.58014678955078 131.4127502441406 C 25.57480812072754 131.4080657958984 25.56705856323242 131.4012603759766 25.56172180175781 131.3965759277344 C 25.55460548400879 131.3903350830078 25.5446949005127 131.3816223144531 25.53758239746094 131.3753814697266 C 25.53224754333496 131.3706817626953 25.52468872070313 131.3640441894531 25.51935577392578 131.3593597412109 C 25.51224517822266 131.3531036376953 25.50185012817383 131.3439636230469 25.49474143981934 131.3377075195313 C 25.48941040039063 131.3330078125 25.48200416564941 131.3264923095703 25.47667503356934 131.3217926025391 C 25.46957015991211 131.3155364990234 25.45910263061523 131.3063201904297 25.45199966430664 131.3000640869141 C 25.4466724395752 131.2953643798828 25.43949127197266 131.2890319824219 25.43416595458984 131.2843322753906 C 25.42706489562988 131.278076171875 25.41650772094727 131.2687530517578 25.40941047668457 131.2624816894531 C 25.40408706665039 131.2577819824219 25.39688682556152 131.2514343261719 25.39156532287598 131.2467346191406 C 25.38446998596191 131.2404632568359 25.37398147583008 131.2311859130859 25.36688804626465 131.2249298095703 C 25.36156845092773 131.22021484375 25.35427665710449 131.2137756347656 25.34895896911621 131.2090606689453 C 25.34186744689941 131.2027893066406 25.33162307739258 131.1937255859375 25.32453536987305 131.1874542236328 C 25.31833457946777 131.1819610595703 25.31220436096191 131.1765289306641 25.30600547790527 131.1710357666016 C 25.29891967773438 131.1647491455078 25.28953170776367 131.1564331054688 25.28244972229004 131.150146484375 C 25.27536582946777 131.1438751220703 25.27040481567383 131.1394653320313 25.26332473754883 131.1331939697266 C 25.25624465942383 131.1269073486328 25.24692535400391 131.1186370849609 25.23984718322754 131.1123504638672 C 25.2327709197998 131.1060638427734 25.22805786132813 131.1018676757813 25.22098350524902 131.0955810546875 C 25.21390724182129 131.0892944335938 25.20465469360352 131.0810699462891 25.19758224487305 131.0747833251953 C 25.19050979614258 131.0684814453125 25.1854362487793 131.06396484375 25.17836570739746 131.0576782226563 C 25.17129707336426 131.0513763427734 25.16211128234863 131.0431976318359 25.15504455566406 131.0369110107422 C 25.14797782897949 131.0306091308594 25.14289474487305 131.0260772705078 25.13582992553711 131.0197906494141 C 25.12876510620117 131.0134887695313 25.12030410766602 131.0059356689453 25.11324119567871 130.9996337890625 C 25.10618019104004 130.9933319091797 25.10018730163574 130.9879913330078 25.0931282043457 130.981689453125 C 25.08606910705566 130.9753875732422 25.07782554626465 130.968017578125 25.07077026367188 130.9617156982422 C 25.06371307373047 130.9554138183594 25.05795860290527 130.9502563476563 25.0509033203125 130.9439544677734 C 25.04384994506836 130.9376525878906 25.03567314147949 130.9303283691406 25.02862167358398 130.9240112304688 C 25.02157020568848 130.9177093505859 25.01546669006348 130.9122467041016 25.0084171295166 130.9059295654297 C 25.00136756896973 130.8996124267578 24.99354553222656 130.8926086425781 24.98649787902832 130.8862915039063 C 24.97945213317871 130.8799743652344 24.9730110168457 130.8741912841797 24.96596717834473 130.8678741455078 C 24.95892333984375 130.8615570068359 24.9513053894043 130.8547210693359 24.94426536560059 130.8484039306641 C 24.93722343444824 130.8420867919922 24.93072700500488 130.8362579345703 24.9236888885498 130.8299255371094 C 24.91665077209473 130.8236083984375 24.90947341918945 130.8171539306641 24.90243721008301 130.8108215332031 C 24.89540100097656 130.8045043945313 24.88783073425293 130.7976989746094 24.88079643249512 130.7913665771484 C 24.8737621307373 130.7850341796875 24.86759185791016 130.7794799804688 24.86056137084961 130.7731475830078 C 24.85353088378906 130.7668151855469 24.84558486938477 130.7596588134766 24.83855628967285 130.7533264160156 C 24.83152770996094 130.7469940185547 24.82530212402344 130.7413787841797 24.81827735900879 130.7350463867188 C 24.81125068664551 130.7287139892578 24.80353736877441 130.7217559814453 24.7965145111084 130.7154083251953 C 24.78949165344238 130.7090759277344 24.78293228149414 130.7031555175781 24.77591133117676 130.6968078613281 C 24.76889038085938 130.6904754638672 24.76163482666016 130.6839141845703 24.75461578369141 130.6775665283203 C 24.74759864807129 130.6712188720703 24.74110221862793 130.6653442382813 24.73408699035645 130.6590118408203 C 24.72707176208496 130.6526641845703 24.71925163269043 130.6455841064453 24.71223831176758 130.6392364501953 C 24.70522689819336 130.6328887939453 24.69929885864258 130.6275177001953 24.69228935241699 130.6211700439453 C 24.68527984619141 130.6148223876953 24.67690467834473 130.6072235107422 24.66989707946777 130.6008758544922 C 24.66288948059082 130.5945129394531 24.65689468383789 130.5890808105469 24.64988899230957 130.5827178955078 C 24.64288520812988 130.5763702392578 24.63522148132324 130.5694122314453 24.62821960449219 130.5630493164063 C 24.6212158203125 130.5567016601563 24.61515998840332 130.5511932373047 24.6081600189209 130.5448303222656 C 24.60116004943848 130.5384674072266 24.59264373779297 130.5307312011719 24.58564567565918 130.5243682861328 C 24.57864761352539 130.5180053710938 24.57373809814453 130.5135345458984 24.56674385070801 130.5071716308594 C 24.55974769592285 130.5008087158203 24.55038833618164 130.4922790527344 24.54339599609375 130.4859161376953 C 24.53640365600586 130.4795379638672 24.53167724609375 130.4752349853516 24.52468681335449 130.4688568115234 C 24.51769828796387 130.4624938964844 24.50854682922363 130.4541473388672 24.50156021118164 130.4477691650391 C 24.49457359313965 130.44140625 24.49011421203613 130.4373321533203 24.48312950134277 130.4309539794922 C 24.47439765930176 130.4229888916016 24.468017578125 130.4171600341797 24.45928955078125 130.4091796875 C 24.45230865478516 130.4028015136719 24.44803619384766 130.3988952636719 24.4410572052002 130.3925170898438 C 24.43407821655273 130.3861389160156 24.4245719909668 130.37744140625 24.41759490966797 130.3710632324219 C 24.41061782836914 130.3646697998047 24.40595054626465 130.3603973388672 24.39897727966309 130.3540191650391 C 24.39200210571289 130.3476257324219 24.3829402923584 130.3393249511719 24.37596893310547 130.3329467773438 C 24.36899757385254 130.3265533447266 24.3642635345459 130.3222198486328 24.35729598999023 130.3158264160156 C 24.35032653808594 130.3094329833984 24.34097480773926 130.3008575439453 24.33400917053223 130.2944641113281 C 24.32704162597656 130.2880706787109 24.32225799560547 130.2836761474609 24.31529426574707 130.2772827148438 C 24.30833053588867 130.2708740234375 24.29939079284668 130.2626647949219 24.29242897033691 130.2562713623047 C 24.28546714782715 130.2498626708984 24.28086853027344 130.2456359863281 24.2739086151123 130.2392425537109 C 24.26521110534668 130.2312316894531 24.25898933410645 130.2255096435547 24.25029563903809 130.2174987792969 C 24.24333953857422 130.2111053466797 24.23891258239746 130.20703125 24.23195838928223 130.2006225585938 C 24.22500610351563 130.1942138671875 24.21574020385742 130.1856689453125 24.20878982543945 130.1792602539063 C 24.20183753967285 130.1728515625 24.19757270812988 130.1689147949219 24.19062614440918 130.1625061035156 C 24.18194007873535 130.1544952392578 24.17510795593262 130.148193359375 24.16642570495605 130.1401672363281 C 24.15948104858398 130.1337585449219 24.1562328338623 130.1307678222656 24.14929008483887 130.1243438720703 C 24.14061164855957 130.1163177490234 24.13308906555176 130.109375 24.12441444396973 130.1013488769531 C 24.11920738220215 130.0965270996094 24.11359405517578 130.0913391113281 24.10839080810547 130.0865173339844 C 24.09971809387207 130.0784912109375 24.09103202819824 130.0704498291016 24.08236312866211 130.0624237060547 C 24.07716178894043 130.0576019287109 24.07180023193359 130.0526428222656 24.06660079956055 130.0478210449219 C 24.05793571472168 130.039794921875 24.04960823059082 130.0320739746094 24.04094505310059 130.0240325927734 C 24.0357494354248 130.0192108154297 24.03053283691406 130.0143737792969 24.02533721923828 130.0095520019531 C 24.01667785644531 130.0015106201172 24.00772094726563 129.9931945800781 23.99906539916992 129.9851531982422 C 23.99387168884277 129.9803161621094 23.98882865905762 129.9756317138672 23.9836368560791 129.9708099365234 C 23.97498321533203 129.9627685546875 23.96633338928223 129.9547119140625 23.95768547058105 129.9466705322266 C 23.95249557495117 129.9418487548828 23.94732475280762 129.9370269775391 23.94213676452637 129.9322052001953 C 23.93349075317383 129.9241485595703 23.92447471618652 129.9157562255859 23.91583251953125 129.9076995849609 C 23.91237449645996 129.9044799804688 23.90464973449707 129.8972778320313 23.90119361877441 129.89404296875 C 23.89255332946777 129.885986328125 23.88278770446777 129.8768768310547 23.8741512298584 129.8688201904297 C 23.87069702148438 129.8656005859375 23.8630313873291 129.8584442138672 23.85957908630371 129.8552093505859 C 23.85094451904297 129.8471527099609 23.84150123596191 129.8383331298828 23.83287239074707 129.8302612304688 C 23.82942008972168 129.8270263671875 23.82189559936523 129.8199920654297 23.81844520568848 129.8167724609375 C 23.80981636047363 129.8087005615234 23.79979705810547 129.7993316650391 23.79117393493652 129.7912445068359 C 23.78772354125977 129.7880249023438 23.78044128417969 129.7812042236328 23.77699279785156 129.7779693603516 C 23.76837348937988 129.7698974609375 23.75847053527832 129.7606201171875 23.74985504150391 129.7525329589844 C 23.74640846252441 129.7493133544922 23.7392692565918 129.7426147460938 23.7358226776123 129.7393798828125 C 23.72720909118652 129.7312927246094 23.71692848205566 129.7216491699219 23.70831871032715 129.7135620117188 C 23.70487403869629 129.7103271484375 23.69769859313965 129.7035827636719 23.69425582885742 129.7003479003906 C 23.68564796447754 129.6922607421875 23.67584419250488 129.6830444335938 23.66724014282227 129.6749572753906 C 23.66379928588867 129.6717224121094 23.65651702880859 129.6648712158203 23.653076171875 129.6616363525391 C 23.64447402954102 129.6535339355469 23.63408851623535 129.6437530517578 23.62549209594727 129.6356658935547 C 23.6220531463623 129.6324157714844 23.61578178405762 129.6265106201172 23.61234474182129 129.6232757568359 C 23.60375022888184 129.6151733398438 23.59264183044434 129.6047058105469 23.58405113220215 129.5966033935547 C 23.58061599731445 129.5933532714844 23.57448577880859 129.5875701904297 23.5710506439209 129.5843200683594 C 23.56246185302734 129.5762176513672 23.55147361755371 129.5658416748047 23.54288864135742 129.5577392578125 C 23.53945541381836 129.5544891357422 23.53322410583496 129.5485992431641 23.5297908782959 129.5453491210938 C 23.52120971679688 129.5372467041016 23.51033210754395 129.5269622802734 23.50175476074219 129.5188446044922 C 23.49832344055176 129.5155944824219 23.49238014221191 129.5099639892578 23.48894882202148 129.5067138671875 C 23.47865867614746 129.4969787597656 23.47019386291504 129.4889526367188 23.45990943908691 129.4792175292969 C 23.45648193359375 129.4759674072266 23.4515438079834 129.4712829589844 23.44811630249023 129.4680328369141 C 23.43783378601074 129.4582824707031 23.42910766601563 129.4500122070313 23.41883087158203 129.4402465820313 C 23.4154052734375 129.4369964599609 23.41052627563477 129.432373046875 23.40710067749023 129.4291229248047 C 23.39682579040527 129.4193572998047 23.38753700256348 129.4105377197266 23.37726783752441 129.4007720947266 C 23.37384414672852 129.3975219726563 23.37003517150879 129.3938903808594 23.36661338806152 129.3906402587891 C 23.35634613037109 129.3808746337891 23.34624862670898 129.3712615966797 23.33598709106445 129.3614959716797 C 23.33256721496582 129.3582458496094 23.32894134521484 129.3547973632813 23.32552146911621 129.3515319824219 C 23.31526374816895 129.3417663574219 23.30525207519531 129.3322143554688 23.29499816894531 129.3224487304688 C 23.29158020019531 129.3191833496094 23.28788185119629 129.3156585693359 23.28446388244629 129.3123931884766 C 23.27421379089355 129.3026275634766 23.26428413391113 129.2931365966797 23.25403785705566 129.2833557128906 C 23.25062370300293 129.2801055908203 23.24697875976563 129.276611328125 23.24356460571289 129.2733612060547 C 23.23332023620605 129.2635650634766 23.22283744812012 129.2535400390625 23.21259880065918 129.2437591552734 C 23.20918655395508 129.2404937744141 23.20654678344727 129.2379608154297 23.2031364440918 129.2347106933594 C 23.19289970397949 129.2249145507813 23.18175315856934 129.2142333984375 23.17152214050293 129.2044372558594 C 23.16811370849609 129.201171875 23.1656436920166 129.1988067626953 23.16223526000977 129.1955413818359 C 23.15200614929199 129.1857452392578 23.14081764221191 129.1750183105469 23.13059616088867 129.1652069091797 C 23.12718963623047 129.1619415283203 23.12471580505371 129.1595611572266 23.12130928039551 129.1562957763672 C 23.1110897064209 129.146484375 23.0999698638916 129.1358032226563 23.08975601196289 129.1259918212891 C 23.08635139465332 129.1227264404297 23.08392906188965 129.1204071044922 23.08052635192871 129.1171264648438 C 23.07031440734863 129.1073150634766 23.05904197692871 129.0964660644531 23.04883766174316 129.0866546630859 C 23.04543495178223 129.0833740234375 23.04311943054199 129.0811462402344 23.03971862792969 129.077880859375 C 23.02951431274414 129.0680541992188 23.01780319213867 129.0567779541016 23.00760650634766 129.0469512939453 C 23.00420570373535 129.0436706542969 23.00279426574707 129.0423126220703 22.9993953704834 129.0390319824219 C 22.98919868469238 129.0292053222656 22.97694206237793 129.0173797607422 22.96675300598145 129.0075531005859 C 22.96335601806641 129.0042724609375 22.96214294433594 129.0030975341797 22.9587459564209 128.9998168945313 C 22.94855880737305 128.9899749755859 22.93606948852539 128.9779205322266 22.92588806152344 128.9680786132813 C 22.92249298095703 128.9647979736328 22.9213809967041 128.9637145996094 22.9179859161377 128.9604339599609 C 22.90780639648438 128.9505920410156 22.89537239074707 128.9385681152344 22.88519859313965 128.9287109375 C 22.88180732727051 128.9254302978516 22.88069343566895 128.9243469238281 22.87730407714844 128.9210662841797 C 22.86713027954102 128.9112091064453 22.85466003417969 128.8991394042969 22.8444938659668 128.8892822265625 C 22.84110641479492 128.885986328125 22.84004020690918 128.8849639892578 22.8366527557373 128.8816680908203 C 22.82648849487305 128.8718109130859 22.81398010253906 128.8596801757813 22.8038215637207 128.8498077392578 C 22.80043411254883 128.8465270996094 22.79946708679199 128.8455810546875 22.79608154296875 128.8423004150391 C 22.78507804870605 128.8316040039063 22.77371978759766 128.8205718994141 22.76272392272949 128.8098754882813 C 22.75934028625488 128.8065795898438 22.75932693481445 128.8065643310547 22.75594329833984 128.8032836914063 C 22.74410247802734 128.7917633056641 22.73348045349121 128.7814178466797 22.72164916992188 128.7698974609375 C 22.7182674407959 128.7666015625 22.71926116943359 128.7675628662109 22.71588134765625 128.7642822265625 C 22.70405006408691 128.7527465820313 22.69282531738281 128.7418060302734 22.68100166320801 128.7302703857422 C 22.67762184143066 128.7269744873047 22.67866325378418 128.7279968261719 22.67528533935547 128.7247009277344 C 22.6634635925293 128.7131652832031 22.65233993530273 128.7023010253906 22.64052581787109 128.6907501220703 C 22.63714981079102 128.6874542236328 22.63823699951172 128.6885223388672 22.63486099243164 128.6852264404297 C 22.62304878234863 128.6736755371094 22.61174774169922 128.6626281738281 22.59994316101074 128.6510772705078 C 22.5965690612793 128.6477813720703 22.59786796569824 128.6490478515625 22.59449577331543 128.645751953125 C 22.58269119262695 128.6342010498047 22.57073593139648 128.6224822998047 22.55894088745117 128.6109313964844 C 22.55894088745117 128.6109313964844 22.5544605255127 128.6065368652344 22.5544605255127 128.6065368652344 C 22.54266548156738 128.594970703125 22.53030395507813 128.5828552246094 22.51851844787598 128.5712890625 C 22.51851844787598 128.5712890625 22.51405906677246 128.5669097900391 22.51405906677246 128.5669097900391 C 22.50227355957031 128.5553436279297 22.48987770080566 128.5431671142578 22.47809982299805 128.5315856933594 C 22.47809982299805 128.5315856933594 22.47371673583984 128.5272827148438 22.47371673583984 128.5272827148438 C 22.46194076538086 128.5157012939453 22.4494571685791 128.50341796875 22.43768882751465 128.4918365478516 C 22.43768882751465 128.4918365478516 22.43335342407227 128.4875640869141 22.43335342407227 128.4875640869141 C 22.42158699035645 128.4759826660156 22.40911865234375 128.4636993408203 22.39735984802246 128.4521026611328 C 22.39735984802246 128.4521026611328 22.3930492401123 128.4478454589844 22.3930492401123 128.4478454589844 C 22.38129234313965 128.4362640380859 22.36878776550293 128.4239196777344 22.3570384979248 128.4123229980469 C 22.3570384979248 128.4123229980469 22.35275077819824 128.4080810546875 22.35275077819824 128.4080810546875 C 22.34100151062012 128.396484375 22.32851409912109 128.3841400146484 22.3167724609375 128.3725280761719 C 22.3167724609375 128.3725280761719 22.31255912780762 128.3683624267578 22.31255912780762 128.3683624267578 C 22.30081939697266 128.3567504882813 22.28819465637207 128.3442535400391 22.27646446228027 128.3326416015625 C 22.27646446228027 128.3326416015625 22.27229881286621 128.3285064697266 22.27229881286621 128.3285064697266 C 22.26056861877441 128.31689453125 22.24800872802734 128.304443359375 22.23628616333008 128.2928161621094 C 22.23628616333008 128.2928161621094 22.23214530944824 128.2887115478516 22.23214530944824 128.2887115478516 C 22.22042465209961 128.2770843505859 22.20733070373535 128.2640838623047 22.19561958312988 128.25244140625 C 22.19561958312988 128.25244140625 22.19244575500488 128.2492980957031 22.19244575500488 128.2492980957031 C 22.18073463439941 128.2376556396484 22.16715812683105 128.2241516113281 22.15545463562012 128.2125091552734 C 22.15545463562012 128.2125091552734 22.1523494720459 128.2094268798828 22.1523494720459 128.2094268798828 C 22.14064788818359 128.1977844238281 22.12699890136719 128.1841888427734 22.11530494689941 128.1725311279297 C 22.11530494689941 128.1725311279297 22.11226654052734 128.1695098876953 22.11226654052734 128.1695098876953 C 22.1005744934082 128.1578521728516 22.08688926696777 128.1442108154297 22.07520484924316 128.1325531005859 C 22.07520484924316 128.1325531005859 22.07223320007324 128.1295776367188 22.07223320007324 128.1295776367188 C 22.05971527099609 128.1170959472656 22.04717063903809 128.1045684814453 22.0346622467041 128.0920562744141 C 22.0346622467041 128.0920562744141 22.03269386291504 128.090087890625 22.03269386291504 128.090087890625 C 22.01935195922852 128.0767517089844 22.0079345703125 128.0653381347656 21.99460220336914 128.0519866943359 C 21.99460220336914 128.0519866943359 21.99270439147949 128.0500946044922 21.99270439147949 128.0500946044922 C 21.97937202453613 128.0367431640625 21.96792221069336 128.0252685546875 21.9546012878418 128.0119171142578 C 21.9546012878418 128.0119171142578 21.95275688171387 128.0100708007813 21.95275688171387 128.0100708007813 C 21.9394359588623 127.9967193603516 21.92793083190918 127.9851760864258 21.91461944580078 127.971809387207 C 21.91461944580078 127.971809387207 21.91280937194824 127.9699859619141 21.91280937194824 127.9699859619141 C 21.89949798583984 127.9566268920898 21.88800430297852 127.9450759887695 21.87470436096191 127.9317016601563 C 21.87470436096191 127.9317016601563 21.87291526794434 127.9299011230469 21.87291526794434 127.9299011230469 C 21.8596134185791 127.9165267944336 21.84761238098145 127.9044494628906 21.83432197570801 127.8910675048828 C 21.83432197570801 127.8910675048828 21.83353996276855 127.8902740478516 21.83353996276855 127.8902740478516 C 21.82025146484375 127.8768920898438 21.80771255493164 127.8642578125 21.79443359375 127.8508605957031 C 21.79443359375 127.8508605957031 21.79370498657227 127.8501281738281 21.79370498657227 127.8501281738281 C 21.78042602539063 127.8367385864258 21.76786422729492 127.8240585327148 21.75459671020508 127.8106536865234 C 21.75459671020508 127.8106536865234 21.7539005279541 127.8099517822266 21.7539005279541 127.8099517822266 C 21.74063301086426 127.7965469360352 21.72804832458496 127.7838287353516 21.71479034423828 127.7704162597656 C 21.71479034423828 127.7704162597656 21.71413803100586 127.7697525024414 21.71413803100586 127.7697525024414 C 21.70088005065918 127.7563400268555 21.68825531005859 127.7435607910156 21.67500877380371 127.7301406860352 C 21.67500877380371 127.7301406860352 21.67440414428711 127.7295227050781 21.67440414428711 127.7295227050781 C 21.66115760803223 127.7161026000977 21.64849472045898 127.7032623291016 21.6352596282959 127.6898345947266 C 21.6352596282959 127.6898345947266 21.63470458984375 127.6892700195313 21.63470458984375 127.6892700195313 C 17.13435745239258 123.1226348876953 13.24996185302734 118.0085601806641 10.06422710418701 112.4906845092773 C 2.845342874526978 99.98725128173828 -0.7847436666488647 85.41178131103516 0.1425456404685974 70.4420166015625 C 0.2587845921516418 68.56699371337891 0.4467455446720123 66.68218994140625 0.7078865170478821 64.79808807373047 C 1.132748007774353 61.7327766418457 1.751901865005493 58.65981674194336 2.573545455932617 55.59341049194336 C 11.54945468902588 22.09481811523438 41.84799957275391 0 74.95295715332031 0 C 81.37799835205078 0 87.90513610839844 0.8314999938011169 94.40659332275391 2.573545455932617 C 97.07390594482422 3.288272619247437 98.65681457519531 6.029954433441162 97.942138671875 8.697272300720215 C 97.34353637695313 10.93121719360352 95.32332611083984 12.4044189453125 93.1156005859375 12.4044189453125 C 92.68731689453125 12.4044189453125 92.25178527832031 12.34893608093262 91.81841278076172 12.23281860351563 C 86.28909301757813 10.75122737884521 80.61473083496094 10 74.95295715332031 10 C 45.62559127807617 10 19.83413696289063 29.8129997253418 12.23281860351563 58.18159103393555 C 7.740408897399902 74.94731903076172 10.04586410522461 92.45895385742188 18.72445487976074 107.4906845092773 C 27.40304565429688 122.5224533081055 41.41586303710938 133.2748107910156 58.18159103393555 137.7671813964844 C 63.71091079711914 139.248779296875 69.38526916503906 140 75.04704284667969 140 C 77.80850219726563 140 80.04704284667969 142.2385864257813 80.04704284667969 145 C 80.04704284667969 147.7614135742188 77.80850219726563 150 75.04704284667969 150 C 75.04704284667969 150 75.04704284667969 150 75.04704284667969 150 Z" stroke="none" fill="#7eb973"/>
  </g>
  <text id="_62_" data-name="62%" transform="translate(83.504 98)" fill="#7eb973" font-size="46" font-family="Heebo-Bold, Heebo" font-weight="700"><tspan x="-43.473" y="0">62%</tspan></text>
</svg>
